<svg xmlns="http://www.w3.org/2000/svg" xmlns:xlink="http://www.w3.org/1999/xlink" width="500" zoomAndPan="magnify" viewBox="0 0 375 374.999991" height="500" preserveAspectRatio="xMidYMid meet" version="1.0"><defs><g/><clipPath id="8cbc019d45"><path d="M 46.0625 84.058594 L 334.0625 84.058594 L 334.0625 300 L 46.0625 300 Z M 46.0625 84.058594 " clip-rule="nonzero"/></clipPath><clipPath id="10b7c88cf5"><path d="M 46.0625 84.058594 L 334.0625 84.058594 L 334.0625 300 L 46.0625 300 Z M 46.0625 84.058594 " clip-rule="nonzero"/></clipPath><clipPath id="99695f9640"><rect x="0" width="289" y="0" height="36"/></clipPath><clipPath id="8907705d47"><rect x="0" width="195" y="0" height="36"/></clipPath></defs><g clip-path="url(#8cbc019d45)"><path fill="#422520" d="M 207.753906 71.417969 L 207.753906 58.355469 L 212.121094 58.355469 L 212.121094 71.679688 C 212.121094 74.289062 213.59375 76.074219 216.152344 76.074219 C 218.710938 76.074219 220.144531 74.289062 220.144531 71.679688 L 220.144531 58.355469 L 224.539062 58.355469 L 224.539062 71.425781 C 224.539062 76.753906 221.277344 80.042969 216.152344 80.042969 C 211.023438 80.042969 207.761719 76.753906 207.761719 71.425781 Z M 260.480469 79.617188 L 265.578125 58.355469 L 273.464844 58.355469 L 278.5625 79.617188 L 274.027344 79.617188 L 272.871094 74.175781 L 266.152344 74.175781 L 264.996094 79.617188 Z M 266.882812 70.738281 L 272.132812 70.738281 L 270.320312 62.261719 L 268.703125 62.261719 L 266.894531 70.738281 Z M 253.023438 79.617188 L 257.417969 79.617188 L 257.417969 61.984375 L 261.898438 61.984375 L 261.898438 58.355469 L 248.550781 58.355469 L 248.550781 61.984375 L 253.03125 61.984375 L 253.03125 79.617188 Z M 231.875 64.847656 L 233.007812 64.847656 L 239.976562 79.617188 L 246.15625 79.617188 L 246.15625 58.355469 L 242.046875 58.355469 L 242.046875 73.125 L 240.917969 73.125 L 233.832031 58.355469 L 227.769531 58.355469 L 227.769531 79.617188 L 231.875 79.617188 Z M 285.542969 58.355469 L 281.148438 58.355469 L 281.148438 79.617188 L 285.542969 79.617188 Z M 293.332031 64.847656 L 294.460938 64.847656 L 301.433594 79.617188 L 307.609375 79.617188 L 307.609375 58.355469 L 303.503906 58.355469 L 303.503906 73.125 L 302.371094 73.125 L 295.289062 58.355469 L 289.222656 58.355469 L 289.222656 79.617188 L 293.332031 79.617188 Z M 160.898438 63.28125 L 162.03125 63.28125 L 165.574219 75.21875 L 170.820312 75.21875 L 174.363281 63.28125 L 175.527344 63.28125 L 175.527344 79.605469 L 179.921875 79.605469 L 179.921875 58.355469 L 172.101562 58.355469 L 168.671875 69.667969 L 167.765625 69.667969 L 164.335938 58.355469 L 156.515625 58.355469 L 156.515625 79.617188 L 160.910156 79.617188 L 160.910156 63.28125 Z M 131.363281 75.988281 L 126.117188 75.988281 L 126.117188 58.355469 L 121.722656 58.355469 L 121.722656 79.617188 L 131.363281 79.617188 Z M 315.128906 88.839844 C 314.484375 88.769531 313.832031 88.742188 313.128906 88.742188 L 67.011719 88.742188 C 55.472656 88.734375 46.09375 98.117188 46.09375 109.65625 L 46.09375 218.9375 C 46.09375 221.984375 46.734375 224.933594 48.007812 227.691406 C 50.015625 232.070312 53.507812 235.636719 57.824219 237.734375 L 180.898438 297.804688 C 183.769531 299.207031 186.921875 299.902344 190.070312 299.902344 C 193.21875 299.902344 196.371094 299.207031 199.242188 297.804688 L 322.308594 237.742188 C 329.445312 234.269531 334.046875 226.890625 334.046875 218.9375 L 334.046875 109.65625 C 334.046875 98.785156 325.902344 89.839844 315.128906 88.839844 Z M 82.128906 79.617188 L 87.226562 58.355469 L 95.113281 58.355469 L 100.210938 79.617188 L 95.675781 79.617188 L 94.511719 74.175781 L 87.792969 74.175781 L 86.625 79.617188 L 82.117188 79.617188 Z M 88.53125 70.738281 L 93.78125 70.738281 L 91.96875 62.261719 L 90.351562 62.261719 L 88.542969 70.738281 Z M 74.671875 79.617188 L 79.066406 79.617188 L 79.066406 61.984375 L 83.546875 61.984375 L 83.546875 58.355469 L 70.195312 58.355469 L 70.195312 61.984375 L 74.679688 61.984375 L 74.679688 79.617188 Z M 182.726562 68.957031 C 182.726562 62.691406 187.460938 57.957031 193.976562 57.957031 C 200.496094 57.957031 205.230469 62.691406 205.230469 68.957031 C 205.230469 75.21875 200.523438 80.042969 193.976562 80.042969 C 187.433594 80.042969 182.726562 75.246094 182.726562 68.957031 Z M 187.171875 69.015625 C 187.171875 72.957031 189.984375 75.90625 193.976562 75.90625 C 197.972656 75.90625 200.757812 72.957031 200.757812 69.015625 C 200.757812 65.074219 197.980469 62.070312 193.976562 62.070312 C 189.972656 62.070312 187.171875 65.023438 187.171875 69.015625 Z M 147.714844 75.988281 L 138.476562 75.988281 L 138.476562 70.035156 L 147.011719 70.035156 L 147.011719 66.769531 L 138.476562 66.769531 L 138.476562 61.976562 L 147.402344 61.976562 L 147.402344 58.355469 L 134.078125 58.355469 L 134.078125 79.617188 L 147.714844 79.617188 Z M 111.6875 79.617188 L 102.621094 79.617188 L 102.621094 58.355469 L 111.273438 58.355469 C 115.554688 58.355469 117.648438 60.738281 117.648438 63.769531 C 117.648438 65.351562 116.910156 66.859375 115.492188 67.683594 C 117.953125 68.503906 119.234375 70.546875 119.234375 72.984375 C 119.234375 76.664062 116.738281 79.617188 111.6875 79.617188 Z M 106.789062 66.769531 L 110.707031 66.769531 C 112.75 66.769531 113.59375 65.578125 113.59375 64.335938 C 113.59375 63.089844 112.941406 61.984375 110.730469 61.984375 L 106.789062 61.984375 L 106.789062 66.78125 Z M 111.324219 76.039062 C 113.960938 76.039062 115.066406 74.507812 115.066406 72.808594 C 115.066406 71.113281 114.210938 69.746094 111.351562 69.746094 L 106.78125 69.746094 L 106.78125 76.039062 Z M 111.324219 76.039062 " fill-opacity="1" fill-rule="nonzero"/></g><path fill="#e9ff61" d="M 313.492188 131.496094 C 314.433594 122.605469 321.082031 115.390625 329.699219 113.589844 L 329.699219 109.65625 C 329.699219 101.625 324.085938 94.921875 316.390625 93.417969 C 310.820312 108.992188 296.238281 119.339844 279.527344 119.339844 C 267.015625 119.339844 255.703125 113.554688 248.460938 104.113281 L 231.242188 104.113281 L 231.242188 99.761719 L 245.582031 99.761719 C 244.378906 97.664062 243.355469 95.4375 242.535156 93.09375 L 83.625 93.09375 C 86.722656 95.84375 88.828125 99.683594 89.332031 104 C 94.425781 104.859375 98.453125 108.863281 99.367188 113.9375 L 116.511719 113.9375 L 116.511719 118.289062 L 97.382812 118.289062 C 96.183594 118.289062 95.207031 117.3125 95.207031 116.113281 C 95.207031 111.734375 91.648438 108.183594 87.28125 108.183594 C 86.078125 108.183594 85.105469 107.210938 85.105469 106.007812 C 85.105469 98.890625 79.308594 93.09375 72.191406 93.09375 L 67.011719 93.09375 C 58.492188 93.09375 51.453125 99.570312 50.546875 107.855469 C 57.839844 109.332031 63.496094 115.347656 64.425781 122.820312 L 78.855469 122.820312 L 78.855469 127.171875 L 62.382812 127.171875 C 61.179688 127.171875 60.207031 126.199219 60.207031 124.996094 C 60.207031 118.914062 56.054688 113.796875 50.433594 112.300781 L 50.433594 149.539062 L 55.5 148.144531 C 56.898438 147.761719 58.222656 147.058594 59.320312 146.117188 L 68.414062 138.355469 C 73.25 134.214844 80.34375 133.785156 85.652344 137.328125 L 98.332031 145.785156 C 100.140625 146.996094 101.671875 148.625 102.769531 150.503906 L 103.890625 152.433594 C 105.371094 154.984375 107.921875 156.707031 110.777344 157.222656 L 127.632812 147.613281 L 134.453125 136.824219 C 135.175781 135.648438 136.464844 134.925781 137.875 134.925781 L 252.109375 134.925781 C 253.394531 134.925781 254.613281 135.542969 255.371094 136.582031 L 262.828125 146.578125 L 268.136719 146.578125 C 268.136719 146.578125 285.054688 146.449219 285.054688 146.449219 C 286.734375 146.449219 288.273438 147.476562 288.875 149.050781 L 293.417969 160.710938 L 305.027344 160.710938 C 306.574219 160.710938 308.011719 161.617188 308.679688 163.015625 L 313.527344 173.136719 L 329.6875 179.558594 L 329.6875 118.078125 C 322.804688 119.941406 317.722656 126.222656 317.722656 133.691406 C 317.722656 134.890625 316.75 135.867188 315.546875 135.867188 L 303.328125 135.867188 L 303.328125 131.515625 L 313.484375 131.515625 Z M 144.957031 118.277344 L 130.753906 118.277344 L 130.753906 113.929688 L 144.957031 113.929688 Z M 186.808594 106.210938 C 180.6875 106.210938 176.894531 109.0625 176.894531 113.648438 L 172.542969 113.648438 C 172.542969 109.054688 168.742188 106.210938 162.632812 106.210938 L 162.632812 101.859375 C 168.566406 101.859375 172.507812 104.007812 174.71875 107 C 176.929688 104.015625 180.878906 101.859375 186.808594 101.859375 Z M 204.351562 119.628906 C 200.269531 119.628906 197.832031 121.402344 197.832031 124.371094 L 193.480469 124.371094 C 193.480469 121.402344 191.042969 119.628906 186.964844 119.628906 L 186.964844 115.277344 C 191.054688 115.277344 193.898438 116.632812 195.65625 118.601562 C 197.414062 116.632812 200.261719 115.277344 204.351562 115.277344 Z M 225.453125 104.101562 L 214.410156 104.101562 L 214.410156 99.753906 L 225.453125 99.753906 Z M 297.039062 135.847656 L 288.1875 135.847656 L 288.1875 131.496094 L 297.039062 131.496094 Z M 108.894531 190.039062 C 107.859375 190.039062 106.988281 189.308594 106.773438 188.339844 L 93.605469 188.339844 C 93.386719 189.316406 92.527344 190.039062 91.484375 190.039062 C 90.4375 190.039062 89.578125 189.308594 89.359375 188.339844 L 84.957031 188.339844 L 84.957031 200.488281 C 84.957031 201.011719 85.375 201.429688 85.894531 201.429688 L 98.15625 201.429688 C 98.46875 200.621094 99.253906 200.046875 100.175781 200.046875 C 101.097656 200.046875 101.882812 200.621094 102.195312 201.429688 L 111.890625 201.429688 C 112.410156 201.429688 112.828125 201.011719 112.828125 200.488281 L 112.828125 188.339844 L 110.992188 188.339844 C 110.777344 189.316406 109.914062 190.039062 108.871094 190.039062 Z M 91.492188 199.609375 C 90.289062 199.609375 89.316406 198.636719 89.316406 197.433594 C 89.316406 196.234375 90.289062 195.257812 91.492188 195.257812 C 92.691406 195.257812 93.667969 196.234375 93.667969 197.433594 C 93.667969 198.636719 92.691406 199.609375 91.492188 199.609375 Z M 100.195312 194.824219 C 98.992188 194.824219 98.019531 193.847656 98.019531 192.648438 C 98.019531 191.449219 98.992188 190.472656 100.195312 190.472656 C 101.394531 190.472656 102.367188 191.449219 102.367188 192.648438 C 102.367188 193.847656 101.394531 194.824219 100.195312 194.824219 Z M 108.894531 199.609375 C 107.695312 199.609375 106.71875 198.636719 106.71875 197.433594 C 106.71875 196.234375 107.695312 195.257812 108.894531 195.257812 C 110.097656 195.257812 111.070312 196.234375 111.070312 197.433594 C 111.070312 198.636719 110.097656 199.609375 108.894531 199.609375 Z M 317.75 190.039062 C 316.714844 190.039062 315.84375 189.308594 315.625 188.339844 L 302.460938 188.339844 C 302.242188 189.316406 301.378906 190.039062 300.335938 190.039062 C 299.292969 190.039062 298.429688 189.308594 298.210938 188.339844 L 285.046875 188.339844 C 284.828125 189.316406 283.96875 190.039062 282.921875 190.039062 C 281.878906 190.039062 281.015625 189.308594 280.800781 188.339844 L 267.632812 188.339844 C 267.414062 189.316406 266.554688 190.039062 265.507812 190.039062 C 264.464844 190.039062 263.605469 189.308594 263.386719 188.339844 L 250.21875 188.339844 C 250.003906 189.316406 249.140625 190.039062 248.097656 190.039062 C 247.050781 190.039062 246.191406 189.308594 245.972656 188.339844 L 232.808594 188.339844 C 232.589844 189.316406 231.726562 190.039062 230.683594 190.039062 C 229.640625 190.039062 228.777344 189.308594 228.558594 188.339844 L 215.394531 188.339844 C 215.175781 189.316406 214.316406 190.039062 213.269531 190.039062 C 212.226562 190.039062 211.363281 189.308594 211.148438 188.339844 L 197.980469 188.339844 C 197.761719 189.316406 196.902344 190.039062 195.855469 190.039062 C 194.8125 190.039062 193.953125 189.308594 193.734375 188.339844 L 180.566406 188.339844 C 180.351562 189.316406 179.488281 190.039062 178.445312 190.039062 C 177.398438 190.039062 176.539062 189.308594 176.320312 188.339844 L 163.152344 188.339844 C 162.9375 189.316406 162.074219 190.039062 161.03125 190.039062 C 159.988281 190.039062 159.125 189.308594 158.90625 188.339844 L 145.742188 188.339844 C 145.523438 189.316406 144.660156 190.039062 143.617188 190.039062 C 142.574219 190.039062 141.710938 189.308594 141.496094 188.339844 L 133.007812 188.339844 L 133.007812 191.613281 C 133.375 190.933594 134.089844 190.472656 134.914062 190.472656 C 136.117188 190.472656 137.089844 191.449219 137.089844 192.648438 C 137.089844 193.847656 136.117188 194.824219 134.914062 194.824219 C 134.089844 194.824219 133.382812 194.363281 133.007812 193.683594 L 133.007812 201.183594 C 133.375 200.507812 134.089844 200.046875 134.914062 200.046875 C 136.117188 200.046875 137.089844 201.019531 137.089844 202.222656 C 137.089844 203.421875 136.117188 204.398438 134.914062 204.398438 C 134.089844 204.398438 133.382812 203.933594 133.007812 203.257812 L 133.007812 210.757812 C 133.375 210.078125 134.089844 209.617188 134.914062 209.617188 C 136.117188 209.617188 137.089844 210.59375 137.089844 211.792969 C 137.089844 212.996094 136.117188 213.96875 134.914062 213.96875 C 134.089844 213.96875 133.382812 213.507812 133.007812 212.828125 L 133.007812 217.746094 C 133.007812 218.269531 133.425781 218.6875 133.949219 218.6875 L 143.09375 218.6875 C 142.148438 218.449219 141.433594 217.597656 141.433594 216.578125 C 141.433594 215.378906 142.40625 214.402344 143.609375 214.402344 C 144.808594 214.402344 145.785156 215.378906 145.785156 216.578125 C 145.785156 217.605469 145.070312 218.460938 144.121094 218.6875 L 149.117188 218.6875 C 149.640625 218.6875 150.058594 219.101562 150.058594 219.625 L 150.058594 236.457031 C 152.980469 235.375 156.042969 234.722656 159.203125 234.523438 C 159.59375 233.933594 160.257812 233.550781 161.011719 233.550781 C 161.769531 233.550781 162.371094 233.90625 162.769531 234.453125 L 164.347656 234.453125 L 168.078125 222.792969 C 167.75 222.410156 167.539062 221.921875 167.539062 221.375 C 167.539062 220.171875 168.515625 219.199219 169.714844 219.199219 C 169.976562 219.199219 170.230469 219.25 170.464844 219.339844 C 171.019531 219.058594 171.648438 218.902344 172.300781 218.902344 L 172.308594 218.902344 C 174.085938 218.902344 175.640625 220.050781 176.179688 221.75 L 177.058594 224.480469 C 177.433594 224.175781 177.90625 223.992188 178.417969 223.992188 C 179.617188 223.992188 180.59375 224.96875 180.59375 226.167969 C 180.59375 227.371094 179.617188 228.34375 178.417969 228.34375 C 178.375 228.34375 178.332031 228.335938 178.296875 228.335938 L 180.261719 234.472656 L 194.0625 234.472656 C 194.457031 233.921875 195.101562 233.566406 195.820312 233.566406 C 196.542969 233.566406 197.179688 233.921875 197.582031 234.472656 L 211.46875 234.472656 C 211.859375 233.921875 212.503906 233.566406 213.226562 233.566406 C 213.949219 233.566406 214.585938 233.921875 214.984375 234.472656 L 218.457031 234.472656 L 221.179688 225.960938 C 221.730469 224.265625 223.285156 223.125 225.0625 223.125 C 226.585938 223.125 227.949219 223.96875 228.648438 225.28125 C 228.988281 224.523438 229.742188 223.992188 230.632812 223.992188 C 231.832031 223.992188 232.808594 224.96875 232.808594 226.167969 C 232.808594 227.371094 231.832031 228.34375 230.632812 228.34375 C 230.265625 228.34375 229.925781 228.25 229.621094 228.085938 L 231.421875 233.714844 C 233.460938 233.234375 235.425781 232.539062 237.28125 231.644531 C 237.210938 231.425781 237.15625 231.199219 237.15625 230.957031 C 237.15625 229.753906 238.132812 228.78125 239.332031 228.78125 C 239.976562 228.78125 240.542969 229.058594 240.941406 229.503906 C 243.5 227.734375 245.773438 225.542969 247.660156 222.96875 L 252.351562 216.570312 C 253.214844 215.394531 254.152344 214.308594 255.144531 213.273438 C 254.789062 212.882812 254.570312 212.375 254.570312 211.8125 C 254.570312 210.609375 255.546875 209.636719 256.746094 209.636719 C 257.390625 209.636719 257.957031 209.921875 258.355469 210.359375 C 259.898438 209.128906 261.542969 208.035156 263.28125 207.113281 C 263.28125 207.078125 263.273438 207.050781 263.273438 207.023438 C 263.273438 205.824219 264.246094 204.847656 265.449219 204.847656 C 266.03125 204.847656 266.5625 205.085938 266.953125 205.457031 C 267.144531 205.386719 267.328125 205.300781 267.527344 205.230469 L 270.503906 195.945312 C 270.808594 194.988281 271.453125 194.222656 272.261719 193.71875 C 272.089844 193.40625 271.984375 193.050781 271.984375 192.664062 C 271.984375 191.464844 272.957031 190.492188 274.160156 190.492188 C 275.359375 190.492188 276.335938 191.464844 276.335938 192.664062 C 276.335938 192.96875 276.273438 193.257812 276.160156 193.519531 C 277.144531 193.988281 277.917969 194.851562 278.265625 195.9375 L 280.214844 202.03125 L 298.125 197.828125 C 298.109375 197.703125 298.089844 197.582031 298.089844 197.453125 C 298.089844 196.25 299.066406 195.277344 300.265625 195.277344 C 301.25 195.277344 302.078125 195.9375 302.347656 196.835938 L 324.46875 191.640625 C 324.832031 190.960938 325.546875 190.492188 326.375 190.492188 C 326.84375 190.492188 327.277344 190.648438 327.636719 190.898438 L 329.617188 190.429688 L 329.617188 188.351562 L 319.792969 188.351562 C 319.578125 189.324219 318.714844 190.046875 317.671875 190.046875 Z M 143.703125 209.183594 C 142.503906 209.183594 141.527344 208.207031 141.527344 207.007812 C 141.527344 205.804688 142.503906 204.832031 143.703125 204.832031 C 144.90625 204.832031 145.878906 205.804688 145.878906 207.007812 C 145.878906 208.207031 144.90625 209.183594 143.703125 209.183594 Z M 143.703125 199.609375 C 142.503906 199.609375 141.527344 198.636719 141.527344 197.433594 C 141.527344 196.234375 142.503906 195.257812 143.703125 195.257812 C 144.90625 195.257812 145.878906 196.234375 145.878906 197.433594 C 145.878906 198.636719 144.90625 199.609375 143.703125 199.609375 Z M 152.40625 233.113281 C 151.207031 233.113281 150.230469 232.140625 150.230469 230.9375 C 150.230469 229.738281 151.207031 228.761719 152.40625 228.761719 C 153.609375 228.761719 154.582031 229.738281 154.582031 230.9375 C 154.582031 232.140625 153.609375 233.113281 152.40625 233.113281 Z M 152.40625 223.542969 C 151.207031 223.542969 150.230469 222.566406 150.230469 221.367188 C 150.230469 220.164062 151.207031 219.191406 152.40625 219.191406 C 153.609375 219.191406 154.582031 220.164062 154.582031 221.367188 C 154.582031 222.566406 153.609375 223.542969 152.40625 223.542969 Z M 152.40625 213.96875 C 151.207031 213.96875 150.230469 212.996094 150.230469 211.792969 C 150.230469 210.59375 151.207031 209.617188 152.40625 209.617188 C 153.609375 209.617188 154.582031 210.59375 154.582031 211.792969 C 154.582031 212.996094 153.609375 213.96875 152.40625 213.96875 Z M 152.40625 204.398438 C 151.207031 204.398438 150.230469 203.421875 150.230469 202.222656 C 150.230469 201.019531 151.207031 200.046875 152.40625 200.046875 C 153.609375 200.046875 154.582031 201.019531 154.582031 202.222656 C 154.582031 203.421875 153.609375 204.398438 152.40625 204.398438 Z M 152.40625 194.824219 C 151.207031 194.824219 150.230469 193.847656 150.230469 192.648438 C 150.230469 191.449219 151.207031 190.472656 152.40625 190.472656 C 153.609375 190.472656 154.582031 191.449219 154.582031 192.648438 C 154.582031 193.847656 153.609375 194.824219 152.40625 194.824219 Z M 161.109375 228.328125 C 159.910156 228.328125 158.933594 227.351562 158.933594 226.152344 C 158.933594 224.949219 159.910156 223.976562 161.109375 223.976562 C 162.308594 223.976562 163.285156 224.949219 163.285156 226.152344 C 163.285156 227.351562 162.308594 228.328125 161.109375 228.328125 Z M 161.109375 218.753906 C 159.910156 218.753906 158.933594 217.78125 158.933594 216.578125 C 158.933594 215.378906 159.910156 214.402344 161.109375 214.402344 C 162.308594 214.402344 163.285156 215.378906 163.285156 216.578125 C 163.285156 217.78125 162.308594 218.753906 161.109375 218.753906 Z M 161.109375 209.183594 C 159.910156 209.183594 158.933594 208.207031 158.933594 207.007812 C 158.933594 205.804688 159.910156 204.832031 161.109375 204.832031 C 162.308594 204.832031 163.285156 205.804688 163.285156 207.007812 C 163.285156 208.207031 162.308594 209.183594 161.109375 209.183594 Z M 161.109375 199.609375 C 159.910156 199.609375 158.933594 198.636719 158.933594 197.433594 C 158.933594 196.234375 159.910156 195.257812 161.109375 195.257812 C 162.308594 195.257812 163.285156 196.234375 163.285156 197.433594 C 163.285156 198.636719 162.308594 199.609375 161.109375 199.609375 Z M 169.8125 213.96875 C 168.609375 213.96875 167.636719 212.996094 167.636719 211.792969 C 167.636719 210.59375 168.609375 209.617188 169.8125 209.617188 C 171.011719 209.617188 171.988281 210.59375 171.988281 211.792969 C 171.988281 212.996094 171.011719 213.96875 169.8125 213.96875 Z M 169.8125 204.398438 C 168.609375 204.398438 167.636719 203.421875 167.636719 202.222656 C 167.636719 201.019531 168.609375 200.046875 169.8125 200.046875 C 171.011719 200.046875 171.988281 201.019531 171.988281 202.222656 C 171.988281 203.421875 171.011719 204.398438 169.8125 204.398438 Z M 169.8125 194.824219 C 168.609375 194.824219 167.636719 193.847656 167.636719 192.648438 C 167.636719 191.449219 168.609375 190.472656 169.8125 190.472656 C 171.011719 190.472656 171.988281 191.449219 171.988281 192.648438 C 171.988281 193.847656 171.011719 194.824219 169.8125 194.824219 Z M 178.511719 218.753906 C 177.3125 218.753906 176.339844 217.78125 176.339844 216.578125 C 176.339844 215.378906 177.3125 214.402344 178.511719 214.402344 C 179.714844 214.402344 180.6875 215.378906 180.6875 216.578125 C 180.6875 217.78125 179.714844 218.753906 178.511719 218.753906 Z M 178.511719 209.183594 C 177.3125 209.183594 176.339844 208.207031 176.339844 207.007812 C 176.339844 205.804688 177.3125 204.832031 178.511719 204.832031 C 179.714844 204.832031 180.6875 205.804688 180.6875 207.007812 C 180.6875 208.207031 179.714844 209.183594 178.511719 209.183594 Z M 178.511719 199.609375 C 177.3125 199.609375 176.339844 198.636719 176.339844 197.433594 C 176.339844 196.234375 177.3125 195.257812 178.511719 195.257812 C 179.714844 195.257812 180.6875 196.234375 180.6875 197.433594 C 180.6875 198.636719 179.714844 199.609375 178.511719 199.609375 Z M 187.214844 233.113281 C 186.015625 233.113281 185.039062 232.140625 185.039062 230.9375 C 185.039062 229.738281 186.015625 228.761719 187.214844 228.761719 C 188.417969 228.761719 189.390625 229.738281 189.390625 230.9375 C 189.390625 232.140625 188.417969 233.113281 187.214844 233.113281 Z M 187.214844 223.542969 C 186.015625 223.542969 185.039062 222.566406 185.039062 221.367188 C 185.039062 220.164062 186.015625 219.191406 187.214844 219.191406 C 188.417969 219.191406 189.390625 220.164062 189.390625 221.367188 C 189.390625 222.566406 188.417969 223.542969 187.214844 223.542969 Z M 187.214844 213.96875 C 186.015625 213.96875 185.039062 212.996094 185.039062 211.792969 C 185.039062 210.59375 186.015625 209.617188 187.214844 209.617188 C 188.417969 209.617188 189.390625 210.59375 189.390625 211.792969 C 189.390625 212.996094 188.417969 213.96875 187.214844 213.96875 Z M 187.214844 204.398438 C 186.015625 204.398438 185.039062 203.421875 185.039062 202.222656 C 185.039062 201.019531 186.015625 200.046875 187.214844 200.046875 C 188.417969 200.046875 189.390625 201.019531 189.390625 202.222656 C 189.390625 203.421875 188.417969 204.398438 187.214844 204.398438 Z M 187.214844 194.824219 C 186.015625 194.824219 185.039062 193.847656 185.039062 192.648438 C 185.039062 191.449219 186.015625 190.472656 187.214844 190.472656 C 188.417969 190.472656 189.390625 191.449219 189.390625 192.648438 C 189.390625 193.847656 188.417969 194.824219 187.214844 194.824219 Z M 195.917969 228.328125 C 194.71875 228.328125 193.742188 227.351562 193.742188 226.152344 C 193.742188 224.949219 194.71875 223.976562 195.917969 223.976562 C 197.117188 223.976562 198.09375 224.949219 198.09375 226.152344 C 198.09375 227.351562 197.117188 228.328125 195.917969 228.328125 Z M 195.917969 218.753906 C 194.71875 218.753906 193.742188 217.78125 193.742188 216.578125 C 193.742188 215.378906 194.71875 214.402344 195.917969 214.402344 C 197.117188 214.402344 198.09375 215.378906 198.09375 216.578125 C 198.09375 217.78125 197.117188 218.753906 195.917969 218.753906 Z M 195.917969 209.183594 C 194.71875 209.183594 193.742188 208.207031 193.742188 207.007812 C 193.742188 205.804688 194.71875 204.832031 195.917969 204.832031 C 197.117188 204.832031 198.09375 205.804688 198.09375 207.007812 C 198.09375 208.207031 197.117188 209.183594 195.917969 209.183594 Z M 195.917969 199.609375 C 194.71875 199.609375 193.742188 198.636719 193.742188 197.433594 C 193.742188 196.234375 194.71875 195.257812 195.917969 195.257812 C 197.117188 195.257812 198.09375 196.234375 198.09375 197.433594 C 198.09375 198.636719 197.117188 199.609375 195.917969 199.609375 Z M 204.621094 233.113281 C 203.417969 233.113281 202.445312 232.140625 202.445312 230.9375 C 202.445312 229.738281 203.417969 228.761719 204.621094 228.761719 C 205.820312 228.761719 206.796875 229.738281 206.796875 230.9375 C 206.796875 232.140625 205.820312 233.113281 204.621094 233.113281 Z M 204.621094 223.542969 C 203.417969 223.542969 202.445312 222.566406 202.445312 221.367188 C 202.445312 220.164062 203.417969 219.191406 204.621094 219.191406 C 205.820312 219.191406 206.796875 220.164062 206.796875 221.367188 C 206.796875 222.566406 205.820312 223.542969 204.621094 223.542969 Z M 204.621094 213.96875 C 203.417969 213.96875 202.445312 212.996094 202.445312 211.792969 C 202.445312 210.59375 203.417969 209.617188 204.621094 209.617188 C 205.820312 209.617188 206.796875 210.59375 206.796875 211.792969 C 206.796875 212.996094 205.820312 213.96875 204.621094 213.96875 Z M 204.621094 204.398438 C 203.417969 204.398438 202.445312 203.421875 202.445312 202.222656 C 202.445312 201.019531 203.417969 200.046875 204.621094 200.046875 C 205.820312 200.046875 206.796875 201.019531 206.796875 202.222656 C 206.796875 203.421875 205.820312 204.398438 204.621094 204.398438 Z M 204.621094 194.824219 C 203.417969 194.824219 202.445312 193.847656 202.445312 192.648438 C 202.445312 191.449219 203.417969 190.472656 204.621094 190.472656 C 205.820312 190.472656 206.796875 191.449219 206.796875 192.648438 C 206.796875 193.847656 205.820312 194.824219 204.621094 194.824219 Z M 213.324219 228.328125 C 212.121094 228.328125 211.148438 227.351562 211.148438 226.152344 C 211.148438 224.949219 212.121094 223.976562 213.324219 223.976562 C 214.523438 223.976562 215.5 224.949219 215.5 226.152344 C 215.5 227.351562 214.523438 228.328125 213.324219 228.328125 Z M 213.324219 218.753906 C 212.121094 218.753906 211.148438 217.78125 211.148438 216.578125 C 211.148438 215.378906 212.121094 214.402344 213.324219 214.402344 C 214.523438 214.402344 215.5 215.378906 215.5 216.578125 C 215.5 217.78125 214.523438 218.753906 213.324219 218.753906 Z M 213.324219 209.183594 C 212.121094 209.183594 211.148438 208.207031 211.148438 207.007812 C 211.148438 205.804688 212.121094 204.832031 213.324219 204.832031 C 214.523438 204.832031 215.5 205.804688 215.5 207.007812 C 215.5 208.207031 214.523438 209.183594 213.324219 209.183594 Z M 213.324219 199.609375 C 212.121094 199.609375 211.148438 198.636719 211.148438 197.433594 C 211.148438 196.234375 212.121094 195.257812 213.324219 195.257812 C 214.523438 195.257812 215.5 196.234375 215.5 197.433594 C 215.5 198.636719 214.523438 199.609375 213.324219 199.609375 Z M 222.023438 223.542969 C 220.824219 223.542969 219.847656 222.566406 219.847656 221.367188 C 219.847656 220.164062 220.824219 219.191406 222.023438 219.191406 C 223.226562 219.191406 224.199219 220.164062 224.199219 221.367188 C 224.199219 222.566406 223.226562 223.542969 222.023438 223.542969 Z M 222.023438 213.96875 C 220.824219 213.96875 219.847656 212.996094 219.847656 211.792969 C 219.847656 210.59375 220.824219 209.617188 222.023438 209.617188 C 223.226562 209.617188 224.199219 210.59375 224.199219 211.792969 C 224.199219 212.996094 223.226562 213.96875 222.023438 213.96875 Z M 222.023438 204.398438 C 220.824219 204.398438 219.847656 203.421875 219.847656 202.222656 C 219.847656 201.019531 220.824219 200.046875 222.023438 200.046875 C 223.226562 200.046875 224.199219 201.019531 224.199219 202.222656 C 224.199219 203.421875 223.226562 204.398438 222.023438 204.398438 Z M 222.023438 194.824219 C 220.824219 194.824219 219.847656 193.847656 219.847656 192.648438 C 219.847656 191.449219 220.824219 190.472656 222.023438 190.472656 C 223.226562 190.472656 224.199219 191.449219 224.199219 192.648438 C 224.199219 193.847656 223.226562 194.824219 222.023438 194.824219 Z M 230.726562 218.753906 C 229.527344 218.753906 228.550781 217.78125 228.550781 216.578125 C 228.550781 215.378906 229.527344 214.402344 230.726562 214.402344 C 231.929688 214.402344 232.902344 215.378906 232.902344 216.578125 C 232.902344 217.78125 231.929688 218.753906 230.726562 218.753906 Z M 230.726562 209.183594 C 229.527344 209.183594 228.550781 208.207031 228.550781 207.007812 C 228.550781 205.804688 229.527344 204.832031 230.726562 204.832031 C 231.929688 204.832031 232.902344 205.804688 232.902344 207.007812 C 232.902344 208.207031 231.929688 209.183594 230.726562 209.183594 Z M 230.726562 199.609375 C 229.527344 199.609375 228.550781 198.636719 228.550781 197.433594 C 228.550781 196.234375 229.527344 195.257812 230.726562 195.257812 C 231.929688 195.257812 232.902344 196.234375 232.902344 197.433594 C 232.902344 198.636719 231.929688 199.609375 230.726562 199.609375 Z M 239.429688 223.542969 C 238.226562 223.542969 237.253906 222.566406 237.253906 221.367188 C 237.253906 220.164062 238.226562 219.191406 239.429688 219.191406 C 240.628906 219.191406 241.605469 220.164062 241.605469 221.367188 C 241.605469 222.566406 240.628906 223.542969 239.429688 223.542969 Z M 239.429688 213.96875 C 238.226562 213.96875 237.253906 212.996094 237.253906 211.792969 C 237.253906 210.59375 238.226562 209.617188 239.429688 209.617188 C 240.628906 209.617188 241.605469 210.59375 241.605469 211.792969 C 241.605469 212.996094 240.628906 213.96875 239.429688 213.96875 Z M 239.429688 204.398438 C 238.226562 204.398438 237.253906 203.421875 237.253906 202.222656 C 237.253906 201.019531 238.226562 200.046875 239.429688 200.046875 C 240.628906 200.046875 241.605469 201.019531 241.605469 202.222656 C 241.605469 203.421875 240.628906 204.398438 239.429688 204.398438 Z M 239.429688 194.824219 C 238.226562 194.824219 237.253906 193.847656 237.253906 192.648438 C 237.253906 191.449219 238.226562 190.472656 239.429688 190.472656 C 240.628906 190.472656 241.605469 191.449219 241.605469 192.648438 C 241.605469 193.847656 240.628906 194.824219 239.429688 194.824219 Z M 248.132812 218.753906 C 246.929688 218.753906 245.957031 217.78125 245.957031 216.578125 C 245.957031 215.378906 246.929688 214.402344 248.132812 214.402344 C 249.332031 214.402344 250.308594 215.378906 250.308594 216.578125 C 250.308594 217.78125 249.332031 218.753906 248.132812 218.753906 Z M 248.132812 209.183594 C 246.929688 209.183594 245.957031 208.207031 245.957031 207.007812 C 245.957031 205.804688 246.929688 204.832031 248.132812 204.832031 C 249.332031 204.832031 250.308594 205.804688 250.308594 207.007812 C 250.308594 208.207031 249.332031 209.183594 248.132812 209.183594 Z M 248.132812 199.609375 C 246.929688 199.609375 245.957031 198.636719 245.957031 197.433594 C 245.957031 196.234375 246.929688 195.257812 248.132812 195.257812 C 249.332031 195.257812 250.308594 196.234375 250.308594 197.433594 C 250.308594 198.636719 249.332031 199.609375 248.132812 199.609375 Z M 256.832031 204.398438 C 255.632812 204.398438 254.65625 203.421875 254.65625 202.222656 C 254.65625 201.019531 255.632812 200.046875 256.832031 200.046875 C 258.035156 200.046875 259.007812 201.019531 259.007812 202.222656 C 259.007812 203.421875 258.035156 204.398438 256.832031 204.398438 Z M 256.832031 194.824219 C 255.632812 194.824219 254.65625 193.847656 254.65625 192.648438 C 254.65625 191.449219 255.632812 190.472656 256.832031 190.472656 C 258.035156 190.472656 259.007812 191.449219 259.007812 192.648438 C 259.007812 193.847656 258.035156 194.824219 256.832031 194.824219 Z M 265.535156 199.609375 C 264.335938 199.609375 263.359375 198.636719 263.359375 197.433594 C 263.359375 196.234375 264.335938 195.257812 265.535156 195.257812 C 266.738281 195.257812 267.710938 196.234375 267.710938 197.433594 C 267.710938 198.636719 266.738281 199.609375 265.535156 199.609375 Z M 282.941406 199.609375 C 281.738281 199.609375 280.765625 198.636719 280.765625 197.433594 C 280.765625 196.234375 281.738281 195.257812 282.941406 195.257812 C 284.140625 195.257812 285.117188 196.234375 285.117188 197.433594 C 285.117188 198.636719 284.140625 199.609375 282.941406 199.609375 Z M 291.640625 194.824219 C 290.441406 194.824219 289.46875 193.847656 289.46875 192.648438 C 289.46875 191.449219 290.441406 190.472656 291.640625 190.472656 C 292.84375 190.472656 293.816406 191.449219 293.816406 192.648438 C 293.816406 193.847656 292.84375 194.824219 291.640625 194.824219 Z M 309.046875 194.824219 C 307.847656 194.824219 306.871094 193.847656 306.871094 192.648438 C 306.871094 191.449219 307.847656 190.472656 309.046875 190.472656 C 310.246094 190.472656 311.222656 191.449219 311.222656 192.648438 C 311.222656 193.847656 310.246094 194.824219 309.046875 194.824219 Z M 229.621094 238.34375 C 229.734375 238.371094 229.847656 238.378906 229.960938 238.378906 L 229.699219 238.542969 L 229.628906 238.34375 Z M 225.15625 228.09375 L 225.253906 228.386719 L 224.941406 228.78125 Z M 225.15625 228.09375 " fill-opacity="1" fill-rule="nonzero"/><path fill="#60993e" d="M 121.234375 208.511719 L 121.234375 202.953125 C 121.234375 202.761719 121.390625 202.605469 121.582031 202.605469 L 127.144531 202.605469 C 127.335938 202.605469 127.492188 202.761719 127.492188 202.953125 L 127.492188 208.511719 C 127.492188 208.703125 127.335938 208.859375 127.144531 208.859375 L 121.582031 208.859375 C 121.390625 208.859375 121.234375 208.703125 121.234375 208.511719 Z M 63.609375 178.542969 L 58.363281 178.542969 C 58.171875 178.542969 58.015625 178.699219 58.015625 178.890625 L 58.015625 184.136719 C 58.015625 184.328125 58.171875 184.484375 58.363281 184.484375 L 63.609375 184.484375 C 63.800781 184.484375 63.957031 184.328125 63.957031 184.136719 L 63.957031 178.890625 C 63.957031 178.699219 63.800781 178.542969 63.609375 178.542969 Z M 63.609375 167.648438 L 58.363281 167.648438 C 58.171875 167.648438 58.015625 167.804688 58.015625 167.996094 L 58.015625 173.242188 C 58.015625 173.433594 58.171875 173.589844 58.363281 173.589844 L 63.609375 173.589844 C 63.800781 173.589844 63.957031 173.433594 63.957031 173.242188 L 63.957031 167.996094 C 63.957031 167.804688 63.800781 167.648438 63.609375 167.648438 Z M 123.679688 225.203125 L 123.679688 230.765625 C 123.679688 230.957031 123.835938 231.113281 124.027344 231.113281 L 129.589844 231.113281 C 129.78125 231.113281 129.9375 230.957031 129.9375 230.765625 L 129.9375 225.203125 C 129.9375 225.011719 129.78125 224.855469 129.589844 224.855469 L 124.027344 224.855469 C 123.835938 224.855469 123.679688 225.011719 123.679688 225.203125 Z M 121.582031 197.390625 L 127.144531 197.390625 C 127.335938 197.390625 127.492188 197.234375 127.492188 197.042969 L 127.492188 191.480469 C 127.492188 191.289062 127.335938 191.132812 127.144531 191.132812 L 121.582031 191.132812 C 121.390625 191.132812 121.234375 191.289062 121.234375 191.480469 L 121.234375 197.042969 C 121.234375 197.234375 121.390625 197.390625 121.582031 197.390625 Z M 135.070312 230.816406 L 140.632812 230.816406 C 140.824219 230.816406 140.980469 230.660156 140.980469 230.46875 L 140.980469 224.90625 C 140.980469 224.714844 140.824219 224.558594 140.632812 224.558594 L 135.070312 224.558594 C 134.878906 224.558594 134.722656 224.714844 134.722656 224.90625 L 134.722656 230.46875 C 134.722656 230.660156 134.878906 230.816406 135.070312 230.816406 Z M 77.21875 194.738281 L 71.660156 194.738281 C 71.46875 194.738281 71.3125 194.894531 71.3125 195.085938 L 71.3125 200.644531 C 71.3125 200.835938 71.46875 200.992188 71.660156 200.992188 L 77.21875 200.992188 C 77.410156 200.992188 77.566406 200.835938 77.566406 200.644531 L 77.566406 195.085938 C 77.566406 194.894531 77.410156 194.738281 77.21875 194.738281 Z M 93.769531 208.433594 L 88.210938 208.433594 C 88.019531 208.433594 87.863281 208.589844 87.863281 208.78125 L 87.863281 214.34375 C 87.863281 214.535156 88.019531 214.691406 88.210938 214.691406 L 93.769531 214.691406 C 93.960938 214.691406 94.121094 214.535156 94.121094 214.34375 L 94.121094 208.78125 C 94.121094 208.589844 93.960938 208.433594 93.769531 208.433594 Z M 104.816406 208.136719 L 99.253906 208.136719 C 99.0625 208.136719 98.90625 208.296875 98.90625 208.488281 L 98.90625 214.046875 C 98.90625 214.238281 99.0625 214.394531 99.253906 214.394531 L 104.816406 214.394531 C 105.007812 214.394531 105.164062 214.238281 105.164062 214.046875 L 105.164062 208.488281 C 105.164062 208.296875 105.007812 208.136719 104.816406 208.136719 Z M 309.378906 210.871094 L 309.378906 215.222656 L 329.699219 215.222656 L 329.699219 218.9375 C 329.699219 225.238281 326.050781 231.085938 320.402344 233.828125 L 301.398438 243.105469 L 300.527344 240.277344 C 299.8125 237.976562 296.566406 237.976562 295.871094 240.277344 L 293.871094 246.777344 L 288.328125 249.484375 L 285.5 240.277344 C 284.785156 237.976562 281.539062 237.976562 280.835938 240.277344 L 276.1875 255.410156 L 253.632812 266.417969 L 256.058594 265.085938 L 235.332031 265.085938 C 228.804688 265.085938 222.539062 267.679688 217.917969 272.28125 L 216.457031 273.746094 L 211.851562 273.746094 C 203.722656 273.746094 196.109375 277.757812 191.515625 284.457031 L 184.542969 294.621094 C 183.953125 294.414062 183.378906 294.167969 182.804688 293.898438 L 119.40625 262.960938 L 144.714844 244.296875 C 149.585938 240.703125 155.355469 238.804688 161.414062 238.804688 L 166.027344 238.804688 C 166.972656 238.804688 167.808594 238.195312 168.097656 237.289062 L 172.386719 223.878906 L 176.6875 237.300781 C 176.972656 238.195312 177.808594 238.8125 178.757812 238.8125 L 220.128906 238.8125 C 221.078125 238.8125 221.910156 238.203125 222.199219 237.300781 L 224.921875 228.789062 L 225.234375 228.398438 L 227.949219 236.882812 C 228.195312 237.65625 228.847656 238.203125 229.605469 238.351562 L 229.675781 238.554688 L 229.933594 238.386719 C 230.082031 238.386719 230.230469 238.386719 230.378906 238.359375 C 238.792969 236.96875 246.199219 232.410156 251.246094 225.527344 L 255.9375 219.136719 C 259.46875 214.324219 264.335938 210.820312 270.007812 208.992188 C 270.679688 208.773438 271.199219 208.25 271.410156 207.582031 L 274.457031 198.078125 L 276.753906 205.257812 C 277.101562 206.335938 278.214844 206.972656 279.320312 206.710938 L 329.679688 194.894531 L 329.679688 210.871094 L 309.359375 210.871094 Z M 175.964844 257.96875 L 158.90625 257.96875 C 154.851562 257.96875 150.9375 259.664062 148.160156 262.632812 L 146.160156 264.773438 L 149.335938 267.738281 L 151.335938 265.597656 C 153.285156 263.511719 156.042969 262.308594 158.898438 262.308594 L 175.957031 262.308594 L 175.957031 257.957031 Z M 194.945312 257.96875 L 184.535156 257.96875 L 184.535156 262.320312 L 194.945312 262.320312 Z M 263.011719 246.226562 L 252.605469 246.226562 L 252.605469 250.578125 L 263.011719 250.578125 Z M 93.769531 219.902344 L 88.210938 219.902344 C 88.019531 219.902344 87.863281 220.058594 87.863281 220.253906 L 87.863281 225.8125 C 87.863281 226.003906 88.019531 226.160156 88.210938 226.160156 L 93.769531 226.160156 C 93.960938 226.160156 94.121094 226.003906 94.121094 225.8125 L 94.121094 220.253906 C 94.121094 220.058594 93.960938 219.902344 93.769531 219.902344 Z M 77.21875 183.265625 L 71.660156 183.265625 C 71.46875 183.265625 71.3125 183.425781 71.3125 183.617188 L 71.3125 189.175781 C 71.3125 189.367188 71.46875 189.523438 71.660156 189.523438 L 77.21875 189.523438 C 77.410156 189.523438 77.566406 189.367188 77.566406 189.175781 L 77.566406 183.617188 C 77.566406 183.425781 77.410156 183.265625 77.21875 183.265625 Z M 77.21875 171.796875 L 71.660156 171.796875 C 71.46875 171.796875 71.3125 171.953125 71.3125 172.144531 L 71.3125 177.707031 C 71.3125 177.898438 71.46875 178.054688 71.660156 178.054688 L 77.21875 178.054688 C 77.410156 178.054688 77.566406 177.898438 77.566406 177.707031 L 77.566406 172.144531 C 77.566406 171.953125 77.410156 171.796875 77.21875 171.796875 Z M 77.21875 171.796875 " fill-opacity="1" fill-rule="nonzero"/><path fill="#d95d39" d="M 311.824219 177.125 C 310.875 176.75 310.101562 176.027344 309.664062 175.113281 L 304.84375 165.054688 L 268.148438 165.054688 L 268.148438 160.703125 L 288.753906 160.703125 L 284.890625 150.789062 L 262.75 150.964844 C 262.566406 150.964844 262.386719 150.949219 262.203125 150.921875 L 243.964844 150.921875 L 243.964844 146.570312 L 257.40625 146.570312 L 251.960938 139.269531 L 138.058594 139.269531 L 131.277344 149.988281 C 130.902344 150.574219 130.425781 151.035156 129.851562 151.355469 L 119.269531 157.394531 L 120.679688 157.394531 C 122.984375 157.394531 125.28125 157.960938 127.328125 159.03125 L 135.960938 163.546875 L 135.960938 163.453125 L 165.566406 163.453125 L 165.566406 167.804688 L 144.078125 167.804688 L 174.824219 183.902344 L 178.234375 174.957031 C 178.765625 173.566406 180.742188 173.566406 181.273438 174.957031 L 184.71875 184 L 252.839844 184 L 256.285156 174.957031 C 256.816406 173.566406 258.792969 173.566406 259.324219 174.957031 L 262.769531 184 L 263.167969 184 L 266.613281 174.957031 C 267.144531 173.566406 269.121094 173.566406 269.652344 174.957031 L 273.097656 184 L 273.5 184 L 276.945312 174.957031 C 277.476562 173.566406 279.449219 173.566406 279.980469 174.957031 L 283.425781 184 L 329.070312 184 L 311.789062 177.132812 Z M 202.15625 152.078125 L 177.972656 152.078125 L 177.972656 147.726562 L 202.15625 147.726562 Z M 223.554688 177.203125 L 209.355469 177.203125 L 209.355469 172.851562 L 223.554688 172.851562 Z M 255.242188 165.046875 L 241.039062 165.046875 L 241.039062 160.695312 L 255.242188 160.695312 Z M 125.308594 162.878906 L 165.625 183.988281 L 133.105469 183.988281 L 133.105469 178.316406 C 133.105469 177.792969 132.6875 177.375 132.164062 177.375 L 125.414062 177.375 L 125.414062 167.828125 L 121.0625 167.828125 L 121.0625 177.375 L 113.796875 177.375 C 113.273438 177.375 112.855469 177.792969 112.855469 178.316406 L 112.855469 183.988281 L 84.980469 183.988281 L 84.980469 166.183594 C 84.980469 165.664062 84.5625 165.246094 84.042969 165.246094 L 50.929688 165.246094 C 50.746094 165.246094 50.589844 165.304688 50.441406 165.402344 L 50.441406 155.195312 L 72.46875 155.195312 L 72.46875 150.84375 L 60.136719 150.84375 C 60.851562 150.425781 61.53125 149.964844 62.15625 149.425781 L 71.25 141.664062 C 74.617188 138.78125 79.550781 138.484375 83.25 140.949219 L 95.929688 149.40625 C 97.191406 150.242188 98.253906 151.382812 99.019531 152.6875 L 100.140625 154.621094 C 102.691406 159.015625 107.433594 161.746094 112.523438 161.746094 L 120.679688 161.746094 C 122.28125 161.746094 123.882812 162.136719 125.308594 162.886719 Z M 247.175781 93.085938 L 311.867188 93.085938 C 306.628906 106.296875 293.964844 114.980469 279.519531 114.980469 C 265.074219 114.980469 252.414062 106.296875 247.164062 93.085938 Z M 247.175781 93.085938 " fill-opacity="1" fill-rule="nonzero"/><g clip-path="url(#10b7c88cf5)"><path fill="#422520" d="M 186.808594 101.859375 L 186.808594 106.210938 C 180.6875 106.210938 176.894531 109.0625 176.894531 113.648438 L 172.542969 113.648438 C 172.542969 109.054688 168.742188 106.210938 162.632812 106.210938 L 162.632812 101.859375 C 168.566406 101.859375 172.507812 104.007812 174.71875 107 C 176.929688 104.015625 180.878906 101.859375 186.808594 101.859375 Z M 186.972656 115.277344 L 186.972656 119.628906 C 191.054688 119.628906 193.488281 121.402344 193.488281 124.371094 L 197.839844 124.371094 C 197.839844 121.402344 200.277344 119.628906 204.359375 119.628906 L 204.359375 115.277344 C 200.269531 115.277344 197.421875 116.632812 195.664062 118.601562 C 193.90625 116.632812 191.0625 115.277344 186.972656 115.277344 Z M 74.671875 79.617188 L 79.066406 79.617188 L 79.066406 61.984375 L 83.546875 61.984375 L 83.546875 58.355469 L 70.195312 58.355469 L 70.195312 61.984375 L 74.679688 61.984375 L 74.679688 79.617188 Z M 82.128906 79.617188 L 87.226562 58.355469 L 95.113281 58.355469 L 100.210938 79.617188 L 95.675781 79.617188 L 94.511719 74.175781 L 87.792969 74.175781 L 86.625 79.617188 L 82.117188 79.617188 Z M 88.53125 70.738281 L 93.78125 70.738281 L 91.96875 62.261719 L 90.351562 62.261719 L 88.542969 70.738281 Z M 111.6875 79.617188 L 102.621094 79.617188 L 102.621094 58.355469 L 111.273438 58.355469 C 115.554688 58.355469 117.648438 60.738281 117.648438 63.769531 C 117.648438 65.351562 116.910156 66.859375 115.492188 67.683594 C 117.953125 68.503906 119.234375 70.546875 119.234375 72.984375 C 119.234375 76.664062 116.738281 79.617188 111.6875 79.617188 Z M 106.789062 66.769531 L 110.707031 66.769531 C 112.75 66.769531 113.59375 65.578125 113.59375 64.335938 C 113.59375 63.089844 112.941406 61.984375 110.730469 61.984375 L 106.789062 61.984375 L 106.789062 66.78125 Z M 111.324219 76.039062 C 113.960938 76.039062 115.066406 74.507812 115.066406 72.808594 C 115.066406 71.113281 114.210938 69.746094 111.351562 69.746094 L 106.78125 69.746094 L 106.78125 76.039062 Z M 131.363281 75.988281 L 126.117188 75.988281 L 126.117188 58.355469 L 121.722656 58.355469 L 121.722656 79.617188 L 131.363281 79.617188 Z M 147.714844 75.988281 L 138.476562 75.988281 L 138.476562 70.035156 L 147.011719 70.035156 L 147.011719 66.769531 L 138.476562 66.769531 L 138.476562 61.976562 L 147.402344 61.976562 L 147.402344 58.355469 L 134.078125 58.355469 L 134.078125 79.617188 L 147.714844 79.617188 Z M 160.898438 63.28125 L 162.03125 63.28125 L 165.574219 75.21875 L 170.820312 75.21875 L 174.363281 63.28125 L 175.527344 63.28125 L 175.527344 79.605469 L 179.921875 79.605469 L 179.921875 58.355469 L 172.101562 58.355469 L 168.671875 69.667969 L 167.765625 69.667969 L 164.335938 58.355469 L 156.515625 58.355469 L 156.515625 79.617188 L 160.910156 79.617188 L 160.910156 63.28125 Z M 182.726562 68.957031 C 182.726562 62.691406 187.460938 57.957031 193.976562 57.957031 C 200.496094 57.957031 205.230469 62.691406 205.230469 68.957031 C 205.230469 75.21875 200.523438 80.042969 193.976562 80.042969 C 187.433594 80.042969 182.726562 75.246094 182.726562 68.957031 Z M 187.171875 69.015625 C 187.171875 72.957031 189.984375 75.90625 193.976562 75.90625 C 197.972656 75.90625 200.757812 72.957031 200.757812 69.015625 C 200.757812 65.074219 197.980469 62.070312 193.976562 62.070312 C 189.972656 62.070312 187.171875 65.023438 187.171875 69.015625 Z M 216.152344 80.042969 C 221.285156 80.042969 224.539062 76.753906 224.539062 71.425781 L 224.539062 58.355469 L 220.144531 58.355469 L 220.144531 71.679688 C 220.144531 74.289062 218.699219 76.074219 216.152344 76.074219 C 213.601562 76.074219 212.121094 74.289062 212.121094 71.679688 L 212.121094 58.355469 L 207.753906 58.355469 L 207.753906 71.425781 C 207.753906 76.753906 211.042969 80.042969 216.140625 80.042969 Z M 231.875 64.847656 L 233.007812 64.847656 L 239.976562 79.617188 L 246.15625 79.617188 L 246.15625 58.355469 L 242.046875 58.355469 L 242.046875 73.125 L 240.917969 73.125 L 233.832031 58.355469 L 227.769531 58.355469 L 227.769531 79.617188 L 231.875 79.617188 Z M 253.023438 79.617188 L 257.417969 79.617188 L 257.417969 61.984375 L 261.898438 61.984375 L 261.898438 58.355469 L 248.550781 58.355469 L 248.550781 61.984375 L 253.03125 61.984375 L 253.03125 79.617188 Z M 260.480469 79.617188 L 265.578125 58.355469 L 273.464844 58.355469 L 278.5625 79.617188 L 274.027344 79.617188 L 272.871094 74.175781 L 266.152344 74.175781 L 264.996094 79.617188 Z M 266.882812 70.738281 L 272.132812 70.738281 L 270.320312 62.261719 L 268.703125 62.261719 L 266.894531 70.738281 Z M 285.542969 58.355469 L 281.148438 58.355469 L 281.148438 79.617188 L 285.542969 79.617188 Z M 293.332031 64.847656 L 294.460938 64.847656 L 301.433594 79.617188 L 307.609375 79.617188 L 307.609375 58.355469 L 303.503906 58.355469 L 303.503906 73.125 L 302.371094 73.125 L 295.289062 58.355469 L 289.222656 58.355469 L 289.222656 79.617188 L 293.332031 79.617188 Z M 334.046875 109.65625 L 334.046875 218.9375 C 334.046875 226.890625 329.445312 234.269531 322.308594 237.742188 L 199.242188 297.804688 C 196.371094 299.207031 193.21875 299.902344 190.070312 299.902344 C 186.921875 299.902344 183.769531 299.207031 180.898438 297.804688 L 57.824219 237.734375 C 53.507812 235.636719 50.023438 232.070312 48.007812 227.691406 C 46.734375 224.925781 46.09375 221.984375 46.09375 218.9375 L 46.09375 109.65625 C 46.09375 98.125 55.472656 88.734375 67.011719 88.734375 L 313.136719 88.734375 C 313.84375 88.734375 314.496094 88.769531 315.136719 88.832031 C 325.910156 89.832031 334.058594 98.785156 334.058594 109.648438 Z M 247.175781 93.085938 C 252.414062 106.296875 265.066406 114.980469 279.527344 114.980469 C 292.914062 114.980469 304.773438 107.515625 310.605469 95.90625 C 311.257812 94.609375 310.316406 93.085938 308.871094 93.085938 Z M 63.957031 178.890625 C 63.957031 178.699219 63.800781 178.542969 63.609375 178.542969 L 58.363281 178.542969 C 58.171875 178.542969 58.015625 178.699219 58.015625 178.890625 L 58.015625 184.136719 C 58.015625 184.328125 58.171875 184.484375 58.363281 184.484375 L 63.609375 184.484375 C 63.800781 184.484375 63.957031 184.328125 63.957031 184.136719 Z M 63.957031 167.988281 C 63.957031 167.796875 63.800781 167.636719 63.609375 167.636719 L 58.363281 167.636719 C 58.171875 167.636719 58.015625 167.796875 58.015625 167.988281 L 58.015625 173.234375 C 58.015625 173.425781 58.171875 173.582031 58.363281 173.582031 L 63.609375 173.582031 C 63.800781 173.582031 63.957031 173.425781 63.957031 173.234375 Z M 77.566406 195.085938 C 77.566406 194.894531 77.410156 194.738281 77.21875 194.738281 L 71.660156 194.738281 C 71.46875 194.738281 71.3125 194.894531 71.3125 195.085938 L 71.3125 200.644531 C 71.3125 200.835938 71.46875 200.992188 71.660156 200.992188 L 77.21875 200.992188 C 77.410156 200.992188 77.566406 200.835938 77.566406 200.644531 Z M 77.566406 183.617188 C 77.566406 183.425781 77.410156 183.265625 77.21875 183.265625 L 71.660156 183.265625 C 71.46875 183.265625 71.3125 183.425781 71.3125 183.617188 L 71.3125 189.175781 C 71.3125 189.367188 71.46875 189.523438 71.660156 189.523438 L 77.21875 189.523438 C 77.410156 189.523438 77.566406 189.367188 77.566406 189.175781 Z M 77.566406 172.144531 C 77.566406 171.953125 77.410156 171.796875 77.21875 171.796875 L 71.660156 171.796875 C 71.46875 171.796875 71.3125 171.953125 71.3125 172.144531 L 71.3125 177.707031 C 71.3125 177.898438 71.46875 178.054688 71.660156 178.054688 L 77.21875 178.054688 C 77.410156 178.054688 77.566406 177.898438 77.566406 177.707031 Z M 94.121094 220.253906 C 94.121094 220.058594 93.960938 219.902344 93.769531 219.902344 L 88.210938 219.902344 C 88.019531 219.902344 87.863281 220.058594 87.863281 220.253906 L 87.863281 225.8125 C 87.863281 226.003906 88.019531 226.160156 88.210938 226.160156 L 93.769531 226.160156 C 93.960938 226.160156 94.121094 226.003906 94.121094 225.8125 Z M 94.121094 208.78125 C 94.121094 208.589844 93.960938 208.433594 93.769531 208.433594 L 88.210938 208.433594 C 88.019531 208.433594 87.863281 208.589844 87.863281 208.78125 L 87.863281 214.34375 C 87.863281 214.535156 88.019531 214.691406 88.210938 214.691406 L 93.769531 214.691406 C 93.960938 214.691406 94.121094 214.535156 94.121094 214.34375 Z M 105.164062 208.488281 C 105.164062 208.296875 105.007812 208.136719 104.8125 208.136719 L 99.253906 208.136719 C 99.0625 208.136719 98.90625 208.296875 98.90625 208.488281 L 98.90625 214.046875 C 98.90625 214.238281 99.0625 214.394531 99.253906 214.394531 L 104.8125 214.394531 C 105.007812 214.394531 105.164062 214.238281 105.164062 214.046875 Z M 112.847656 188.339844 L 111.011719 188.339844 C 110.792969 189.316406 109.929688 190.039062 108.886719 190.039062 C 107.84375 190.039062 106.980469 189.308594 106.765625 188.339844 L 93.597656 188.339844 C 93.378906 189.316406 92.519531 190.039062 91.472656 190.039062 C 90.429688 190.039062 89.566406 189.308594 89.351562 188.339844 L 84.949219 188.339844 L 84.949219 200.488281 C 84.949219 201.011719 85.363281 201.429688 85.886719 201.429688 L 98.148438 201.429688 C 98.460938 200.621094 99.246094 200.046875 100.167969 200.046875 C 101.089844 200.046875 101.875 200.621094 102.1875 201.429688 L 111.878906 201.429688 C 112.402344 201.429688 112.820312 201.011719 112.820312 200.488281 L 112.820312 188.339844 Z M 113.785156 177.375 L 121.054688 177.375 L 121.054688 167.828125 L 125.402344 167.828125 L 125.402344 177.375 L 132.15625 177.375 C 132.679688 177.375 133.097656 177.792969 133.097656 178.316406 L 133.097656 183.988281 L 153.730469 183.988281 C 156.785156 183.988281 157.792969 179.890625 155.085938 178.472656 L 125.300781 162.871094 C 123.871094 162.121094 122.28125 161.730469 120.660156 161.730469 L 112.515625 161.730469 C 107.425781 161.730469 102.683594 158.996094 100.132812 154.601562 L 99.011719 152.671875 C 98.253906 151.363281 97.183594 150.226562 95.921875 149.390625 L 83.242188 140.929688 C 79.542969 138.46875 74.609375 138.765625 71.242188 141.644531 L 62.148438 149.40625 C 61.519531 149.9375 60.84375 150.398438 60.128906 150.824219 L 72.460938 150.824219 L 72.460938 155.175781 L 58.292969 155.175781 C 53.957031 155.175781 50.441406 158.691406 50.441406 163.027344 L 50.441406 165.382812 C 50.582031 165.296875 50.746094 165.226562 50.929688 165.226562 L 84.035156 165.226562 C 84.554688 165.226562 84.972656 165.644531 84.972656 166.167969 L 84.972656 183.972656 L 112.847656 183.972656 L 112.847656 178.296875 C 112.847656 177.777344 113.265625 177.359375 113.785156 177.359375 Z M 243.972656 150.914062 L 243.972656 146.5625 L 249.542969 146.5625 C 252.785156 146.5625 254.648438 142.855469 252.707031 140.253906 L 251.96875 139.261719 L 138.058594 139.261719 L 131.277344 149.980469 C 130.902344 150.566406 130.425781 151.027344 129.851562 151.347656 L 120.417969 156.726562 C 120.105469 156.910156 120.234375 157.378906 120.589844 157.378906 C 122.957031 157.378906 125.289062 157.953125 127.398438 159.050781 L 133.59375 162.296875 C 135.003906 163.035156 136.558594 163.417969 138.152344 163.417969 L 165.566406 163.433594 L 165.566406 167.785156 L 145.507812 167.785156 C 145.140625 167.785156 145.019531 168.28125 145.339844 168.449219 L 174.824219 183.886719 L 178.234375 174.941406 C 178.765625 173.546875 180.742188 173.546875 181.273438 174.941406 L 184.71875 183.980469 L 252.839844 183.980469 L 256.285156 174.941406 C 256.816406 173.546875 258.792969 173.546875 259.324219 174.941406 L 262.769531 183.980469 L 263.167969 183.980469 L 266.613281 174.941406 C 267.144531 173.546875 269.121094 173.546875 269.652344 174.941406 L 273.097656 183.980469 L 273.5 183.980469 L 276.945312 174.941406 C 277.476562 173.546875 279.449219 173.546875 279.980469 174.941406 L 283.425781 183.980469 L 320.855469 183.980469 C 322.585938 183.980469 323.050781 181.589844 321.4375 180.945312 L 311.796875 177.105469 C 310.847656 176.730469 310.074219 176.011719 309.640625 175.097656 L 306.792969 169.160156 C 305.582031 166.636719 303.035156 165.027344 300.242188 165.027344 L 268.121094 165.027344 L 268.121094 160.675781 L 278.09375 160.675781 C 283.210938 160.675781 286.726562 155.535156 284.863281 150.765625 C 284.863281 150.765625 262.726562 150.9375 262.726562 150.9375 C 262.542969 150.9375 262.359375 150.921875 262.175781 150.894531 L 243.9375 150.894531 Z M 121.234375 202.953125 L 121.234375 208.511719 C 121.234375 208.703125 121.390625 208.859375 121.582031 208.859375 L 127.144531 208.859375 C 127.335938 208.859375 127.492188 208.703125 127.492188 208.511719 L 127.492188 202.953125 C 127.492188 202.761719 127.335938 202.605469 127.144531 202.605469 L 121.582031 202.605469 C 121.390625 202.605469 121.234375 202.761719 121.234375 202.953125 Z M 121.582031 197.390625 L 127.144531 197.390625 C 127.335938 197.390625 127.492188 197.234375 127.492188 197.042969 L 127.492188 191.480469 C 127.492188 191.289062 127.335938 191.132812 127.144531 191.132812 L 121.582031 191.132812 C 121.390625 191.132812 121.234375 191.289062 121.234375 191.480469 L 121.234375 197.042969 C 121.234375 197.234375 121.390625 197.390625 121.582031 197.390625 Z M 123.679688 230.765625 C 123.679688 230.957031 123.835938 231.113281 124.027344 231.113281 L 129.589844 231.113281 C 129.78125 231.113281 129.9375 230.957031 129.9375 230.765625 L 129.9375 225.203125 C 129.9375 225.011719 129.78125 224.855469 129.589844 224.855469 L 124.027344 224.855469 C 123.835938 224.855469 123.679688 225.011719 123.679688 225.203125 Z M 329.699219 202.605469 C 329.699219 198.660156 326.023438 195.746094 322.1875 196.652344 L 279.335938 206.710938 C 278.230469 206.972656 277.109375 206.335938 276.769531 205.257812 L 274.472656 198.078125 L 271.425781 207.582031 C 271.210938 208.261719 270.660156 208.78125 269.984375 209 C 264.335938 210.835938 259.480469 214.335938 255.953125 219.128906 L 251.265625 225.515625 C 246.226562 232.398438 238.8125 236.960938 230.394531 238.351562 C 230.25 238.378906 230.101562 238.378906 229.953125 238.378906 C 229.839844 238.378906 229.726562 238.359375 229.613281 238.34375 C 228.855469 238.195312 228.210938 237.648438 227.960938 236.875 L 225.246094 228.386719 L 225.148438 228.09375 L 224.929688 228.78125 L 222.207031 237.289062 C 221.921875 238.195312 221.085938 238.804688 220.136719 238.804688 L 178.765625 238.804688 C 177.816406 238.804688 176.980469 238.195312 176.695312 237.289062 L 172.394531 223.871094 L 168.105469 237.28125 C 167.820312 238.1875 166.984375 238.796875 166.035156 238.796875 L 161.421875 238.796875 C 155.375 238.796875 149.597656 240.695312 144.722656 244.289062 L 132.261719 253.476562 C 126.414062 257.792969 127.230469 266.765625 133.757812 269.949219 L 182.804688 293.890625 C 183.371094 294.167969 183.953125 294.402344 184.542969 294.613281 L 191.515625 284.449219 C 196.109375 277.738281 203.722656 273.734375 211.851562 273.734375 L 216.457031 273.734375 L 217.917969 272.273438 C 222.539062 267.660156 228.804688 265.078125 235.332031 265.078125 L 256.058594 265.078125 L 253.632812 266.410156 L 276.1875 255.398438 L 280.835938 240.265625 C 281.546875 237.96875 284.792969 237.96875 285.5 240.265625 L 288.328125 249.472656 L 293.871094 246.769531 L 295.871094 240.265625 C 296.578125 237.96875 299.824219 237.96875 300.527344 240.265625 L 301.398438 243.09375 L 320.402344 233.820312 C 326.050781 231.070312 329.699219 225.230469 329.699219 218.929688 C 329.699219 216.875 328.035156 215.214844 325.980469 215.214844 L 309.378906 215.214844 L 309.378906 210.863281 L 325.980469 210.863281 C 328.035156 210.863281 329.699219 209.199219 329.699219 207.144531 Z M 135.070312 230.816406 L 140.632812 230.816406 C 140.824219 230.816406 140.980469 230.660156 140.980469 230.46875 L 140.980469 224.90625 C 140.980469 224.714844 140.824219 224.558594 140.632812 224.558594 L 135.070312 224.558594 C 134.878906 224.558594 134.722656 224.714844 134.722656 224.90625 L 134.722656 230.46875 C 134.722656 230.660156 134.878906 230.816406 135.070312 230.816406 Z M 329.699219 188.339844 L 319.871094 188.339844 C 319.65625 189.316406 318.792969 190.039062 317.75 190.039062 C 316.703125 190.039062 315.84375 189.308594 315.625 188.339844 L 302.460938 188.339844 C 302.242188 189.316406 301.378906 190.039062 300.335938 190.039062 C 299.292969 190.039062 298.429688 189.308594 298.210938 188.339844 L 285.046875 188.339844 C 284.828125 189.316406 283.96875 190.039062 282.921875 190.039062 C 281.878906 190.039062 281.015625 189.308594 280.800781 188.339844 L 267.632812 188.339844 C 267.414062 189.316406 266.554688 190.039062 265.507812 190.039062 C 264.464844 190.039062 263.605469 189.308594 263.386719 188.339844 L 250.21875 188.339844 C 250.003906 189.316406 249.140625 190.039062 248.097656 190.039062 C 247.050781 190.039062 246.191406 189.308594 245.972656 188.339844 L 232.808594 188.339844 C 232.589844 189.316406 231.726562 190.039062 230.683594 190.039062 C 229.640625 190.039062 228.777344 189.308594 228.558594 188.339844 L 215.394531 188.339844 C 215.175781 189.316406 214.316406 190.039062 213.269531 190.039062 C 212.226562 190.039062 211.363281 189.308594 211.148438 188.339844 L 197.980469 188.339844 C 197.761719 189.316406 196.902344 190.039062 195.855469 190.039062 C 194.8125 190.039062 193.953125 189.308594 193.734375 188.339844 L 180.566406 188.339844 C 180.351562 189.316406 179.488281 190.039062 178.445312 190.039062 C 177.398438 190.039062 176.539062 189.308594 176.320312 188.339844 L 163.152344 188.339844 C 162.9375 189.316406 162.074219 190.039062 161.03125 190.039062 C 159.988281 190.039062 159.125 189.308594 158.90625 188.339844 L 145.742188 188.339844 C 145.523438 189.316406 144.660156 190.039062 143.617188 190.039062 C 142.574219 190.039062 141.710938 189.308594 141.496094 188.339844 L 133.007812 188.339844 L 133.007812 191.613281 C 133.375 190.933594 134.089844 190.472656 134.914062 190.472656 C 136.117188 190.472656 137.089844 191.449219 137.089844 192.648438 C 137.089844 193.847656 136.117188 194.824219 134.914062 194.824219 C 134.089844 194.824219 133.382812 194.363281 133.007812 193.683594 L 133.007812 201.183594 C 133.375 200.507812 134.089844 200.046875 134.914062 200.046875 C 136.117188 200.046875 137.089844 201.019531 137.089844 202.222656 C 137.089844 203.421875 136.117188 204.398438 134.914062 204.398438 C 134.089844 204.398438 133.382812 203.933594 133.007812 203.257812 L 133.007812 210.757812 C 133.375 210.078125 134.089844 209.617188 134.914062 209.617188 C 136.117188 209.617188 137.089844 210.59375 137.089844 211.792969 C 137.089844 212.996094 136.117188 213.96875 134.914062 213.96875 C 134.089844 213.96875 133.382812 213.507812 133.007812 212.828125 L 133.007812 217.746094 C 133.007812 218.269531 133.425781 218.6875 133.949219 218.6875 L 143.09375 218.6875 C 142.148438 218.449219 141.433594 217.597656 141.433594 216.578125 C 141.433594 215.378906 142.40625 214.402344 143.609375 214.402344 C 144.808594 214.402344 145.785156 215.378906 145.785156 216.578125 C 145.785156 217.605469 145.070312 218.460938 144.121094 218.6875 L 149.117188 218.6875 C 149.640625 218.6875 150.058594 219.101562 150.058594 219.625 L 150.058594 236.457031 C 152.980469 235.375 156.042969 234.722656 159.203125 234.523438 C 159.59375 233.933594 160.257812 233.550781 161.011719 233.550781 C 161.769531 233.550781 162.371094 233.90625 162.769531 234.453125 L 164.347656 234.453125 L 168.078125 222.792969 C 167.75 222.410156 167.539062 221.921875 167.539062 221.375 C 167.539062 220.171875 168.515625 219.199219 169.714844 219.199219 C 169.976562 219.199219 170.230469 219.25 170.464844 219.339844 C 171.019531 219.058594 171.648438 218.902344 172.300781 218.902344 L 172.308594 218.902344 C 174.085938 218.902344 175.640625 220.050781 176.179688 221.75 L 177.058594 224.480469 C 177.433594 224.175781 177.90625 223.992188 178.417969 223.992188 C 179.617188 223.992188 180.59375 224.96875 180.59375 226.167969 C 180.59375 227.371094 179.617188 228.34375 178.417969 228.34375 C 178.375 228.34375 178.332031 228.335938 178.296875 228.335938 L 180.261719 234.472656 L 194.0625 234.472656 C 194.457031 233.921875 195.101562 233.566406 195.820312 233.566406 C 196.542969 233.566406 197.179688 233.921875 197.578125 234.472656 L 211.46875 234.472656 C 211.859375 233.921875 212.503906 233.566406 213.226562 233.566406 C 213.949219 233.566406 214.585938 233.921875 214.984375 234.472656 L 218.457031 234.472656 L 221.179688 225.960938 C 221.730469 224.265625 223.285156 223.125 225.0625 223.125 C 226.585938 223.125 227.949219 223.96875 228.648438 225.28125 C 228.988281 224.523438 229.742188 223.992188 230.632812 223.992188 C 231.832031 223.992188 232.808594 224.96875 232.808594 226.167969 C 232.808594 227.371094 231.832031 228.34375 230.632812 228.34375 C 230.265625 228.34375 229.925781 228.25 229.621094 228.085938 L 231.421875 233.714844 C 233.460938 233.234375 235.425781 232.539062 237.28125 231.644531 C 237.210938 231.425781 237.15625 231.199219 237.15625 230.957031 C 237.15625 229.753906 238.132812 228.78125 239.332031 228.78125 C 239.976562 228.78125 240.542969 229.058594 240.941406 229.503906 C 243.5 227.734375 245.773438 225.542969 247.660156 222.96875 L 252.351562 216.570312 C 253.214844 215.394531 254.152344 214.308594 255.144531 213.273438 C 254.789062 212.882812 254.570312 212.375 254.570312 211.8125 C 254.570312 210.609375 255.546875 209.636719 256.746094 209.636719 C 257.390625 209.636719 257.957031 209.921875 258.355469 210.359375 C 259.898438 209.128906 261.542969 208.035156 263.28125 207.113281 C 263.28125 207.078125 263.273438 207.050781 263.273438 207.023438 C 263.273438 205.824219 264.246094 204.847656 265.449219 204.847656 C 266.03125 204.847656 266.5625 205.085938 266.953125 205.457031 C 267.144531 205.386719 267.328125 205.300781 267.527344 205.230469 L 270.503906 195.945312 C 270.808594 194.988281 271.453125 194.222656 272.261719 193.71875 C 272.089844 193.40625 271.984375 193.050781 271.984375 192.664062 C 271.984375 191.464844 272.957031 190.492188 274.160156 190.492188 C 275.359375 190.492188 276.335938 191.464844 276.335938 192.664062 C 276.335938 192.96875 276.273438 193.257812 276.160156 193.519531 C 277.144531 193.988281 277.917969 194.851562 278.265625 195.9375 L 280.214844 202.03125 L 298.125 197.828125 C 298.109375 197.703125 298.089844 197.582031 298.089844 197.453125 C 298.089844 196.25 299.066406 195.277344 300.265625 195.277344 C 301.25 195.277344 302.078125 195.9375 302.347656 196.835938 L 324.46875 191.640625 C 324.832031 190.960938 325.546875 190.492188 326.371094 190.492188 C 326.84375 190.492188 327.277344 190.648438 327.636719 190.898438 L 329.617188 190.429688 L 329.617188 188.351562 Z M 329.699219 109.65625 C 329.699219 102.242188 324.910156 95.957031 318.125 93.851562 C 317.183594 93.566406 316.164062 94.050781 315.800781 94.964844 C 309.839844 109.679688 295.671875 119.339844 279.519531 119.339844 C 267.007812 119.339844 255.695312 113.554688 248.453125 104.113281 L 231.230469 104.113281 L 231.230469 99.761719 L 245.574219 99.761719 C 244.371094 97.664062 243.34375 95.4375 242.527344 93.09375 L 90.238281 93.09375 C 87.765625 93.09375 86.261719 95.730469 87.425781 97.90625 C 88.417969 99.761719 89.082031 101.824219 89.332031 104 C 94.425781 104.859375 98.453125 108.863281 99.367188 113.9375 L 116.511719 113.9375 L 116.511719 118.289062 L 97.382812 118.289062 C 96.183594 118.289062 95.207031 117.320312 95.207031 116.128906 C 95.207031 111.742188 91.648438 108.175781 87.261719 108.183594 C 86.035156 108.183594 85.09375 107.226562 85.09375 106.007812 C 85.09375 98.890625 79.300781 93.105469 72.179688 93.105469 L 67.003906 93.105469 C 59.980469 93.105469 53.976562 97.488281 51.566406 103.667969 C 50.757812 105.738281 51.851562 108.035156 53.898438 108.90625 C 59.519531 111.300781 63.644531 116.554688 64.417969 122.832031 L 78.847656 122.832031 L 78.847656 127.183594 L 62.375 127.183594 C 61.171875 127.183594 60.199219 126.199219 60.199219 124.996094 C 60.199219 122.265625 59.355469 119.734375 57.925781 117.636719 C 55.664062 114.3125 50.425781 116.007812 50.425781 120.027344 L 50.425781 149.554688 C 50.425781 149.554688 55.492188 148.164062 55.492188 148.164062 C 56.890625 147.78125 58.214844 147.074219 59.308594 146.136719 L 68.40625 138.371094 C 73.242188 134.230469 80.335938 133.804688 85.644531 137.347656 L 98.324219 145.804688 C 100.132812 147.015625 101.664062 148.640625 102.761719 150.519531 L 103.882812 152.453125 C 105.363281 155.003906 107.914062 156.726562 110.765625 157.238281 L 127.621094 147.632812 L 134.445312 136.839844 C 135.167969 135.667969 136.457031 134.945312 137.867188 134.945312 L 252.101562 134.945312 C 253.386719 134.945312 254.605469 135.5625 255.363281 136.597656 L 261.636719 145.011719 C 262.386719 146.011719 263.550781 146.597656 264.804688 146.597656 L 268.128906 146.597656 C 268.128906 146.597656 285.046875 146.464844 285.046875 146.464844 C 286.726562 146.464844 288.265625 147.492188 288.867188 149.066406 L 293.410156 160.730469 L 305.019531 160.730469 C 306.574219 160.730469 307.992188 161.625 308.671875 163.027344 L 313.519531 173.148438 L 325.9375 178.082031 C 327.730469 178.792969 329.679688 177.472656 329.679688 175.539062 L 329.679688 120.863281 C 329.679688 119.460938 328.226562 118.488281 326.964844 119.089844 C 321.507812 121.691406 317.714844 127.25 317.714844 133.691406 C 317.714844 134.890625 316.738281 135.867188 315.539062 135.867188 L 303.320312 135.867188 C 303.320312 135.867188 303.320312 131.515625 303.320312 131.515625 L 313.476562 131.515625 C 314.363281 123.101562 320.359375 116.199219 328.289062 113.945312 C 329.113281 113.710938 329.679688 112.953125 329.679688 112.09375 L 329.679688 109.671875 Z M 100.195312 190.472656 C 98.992188 190.472656 98.019531 191.449219 98.019531 192.648438 C 98.019531 193.847656 98.992188 194.824219 100.195312 194.824219 C 101.394531 194.824219 102.367188 193.847656 102.367188 192.648438 C 102.367188 191.449219 101.394531 190.472656 100.195312 190.472656 Z M 152.40625 190.472656 C 151.207031 190.472656 150.230469 191.449219 150.230469 192.648438 C 150.230469 193.847656 151.207031 194.824219 152.40625 194.824219 C 153.609375 194.824219 154.582031 193.847656 154.582031 192.648438 C 154.582031 191.449219 153.609375 190.472656 152.40625 190.472656 Z M 169.8125 190.472656 C 168.609375 190.472656 167.636719 191.449219 167.636719 192.648438 C 167.636719 193.847656 168.609375 194.824219 169.8125 194.824219 C 171.011719 194.824219 171.988281 193.847656 171.988281 192.648438 C 171.988281 191.449219 171.011719 190.472656 169.8125 190.472656 Z M 187.214844 190.472656 C 186.015625 190.472656 185.039062 191.449219 185.039062 192.648438 C 185.039062 193.847656 186.015625 194.824219 187.214844 194.824219 C 188.417969 194.824219 189.390625 193.847656 189.390625 192.648438 C 189.390625 191.449219 188.417969 190.472656 187.214844 190.472656 Z M 204.621094 190.472656 C 203.417969 190.472656 202.445312 191.449219 202.445312 192.648438 C 202.445312 193.847656 203.417969 194.824219 204.621094 194.824219 C 205.820312 194.824219 206.796875 193.847656 206.796875 192.648438 C 206.796875 191.449219 205.820312 190.472656 204.621094 190.472656 Z M 222.023438 190.472656 C 220.824219 190.472656 219.847656 191.449219 219.847656 192.648438 C 219.847656 193.847656 220.824219 194.824219 222.023438 194.824219 C 223.226562 194.824219 224.199219 193.847656 224.199219 192.648438 C 224.199219 191.449219 223.226562 190.472656 222.023438 190.472656 Z M 239.429688 190.472656 C 238.226562 190.472656 237.253906 191.449219 237.253906 192.648438 C 237.253906 193.847656 238.226562 194.824219 239.429688 194.824219 C 240.628906 194.824219 241.605469 193.847656 241.605469 192.648438 C 241.605469 191.449219 240.628906 190.472656 239.429688 190.472656 Z M 256.832031 190.472656 C 255.632812 190.472656 254.65625 191.449219 254.65625 192.648438 C 254.65625 193.847656 255.632812 194.824219 256.832031 194.824219 C 258.035156 194.824219 259.007812 193.847656 259.007812 192.648438 C 259.007812 191.449219 258.035156 190.472656 256.832031 190.472656 Z M 291.640625 190.472656 C 290.441406 190.472656 289.46875 191.449219 289.46875 192.648438 C 289.46875 193.847656 290.441406 194.824219 291.640625 194.824219 C 292.84375 194.824219 293.816406 193.847656 293.816406 192.648438 C 293.816406 191.449219 292.84375 190.472656 291.640625 190.472656 Z M 309.046875 190.472656 C 307.847656 190.472656 306.871094 191.449219 306.871094 192.648438 C 306.871094 193.847656 307.847656 194.824219 309.046875 194.824219 C 310.246094 194.824219 311.222656 193.847656 311.222656 192.648438 C 311.222656 191.449219 310.246094 190.472656 309.046875 190.472656 Z M 91.492188 195.257812 C 90.289062 195.257812 89.316406 196.234375 89.316406 197.433594 C 89.316406 198.636719 90.289062 199.609375 91.492188 199.609375 C 92.691406 199.609375 93.667969 198.636719 93.667969 197.433594 C 93.667969 196.234375 92.691406 195.257812 91.492188 195.257812 Z M 108.894531 195.257812 C 107.695312 195.257812 106.71875 196.234375 106.71875 197.433594 C 106.71875 198.636719 107.695312 199.609375 108.894531 199.609375 C 110.097656 199.609375 111.070312 198.636719 111.070312 197.433594 C 111.070312 196.234375 110.097656 195.257812 108.894531 195.257812 Z M 143.703125 195.257812 C 142.503906 195.257812 141.527344 196.234375 141.527344 197.433594 C 141.527344 198.636719 142.503906 199.609375 143.703125 199.609375 C 144.90625 199.609375 145.878906 198.636719 145.878906 197.433594 C 145.878906 196.234375 144.90625 195.257812 143.703125 195.257812 Z M 152.40625 200.046875 C 151.207031 200.046875 150.230469 201.019531 150.230469 202.222656 C 150.230469 203.421875 151.207031 204.398438 152.40625 204.398438 C 153.609375 204.398438 154.582031 203.421875 154.582031 202.222656 C 154.582031 201.019531 153.609375 200.046875 152.40625 200.046875 Z M 161.109375 195.257812 C 159.910156 195.257812 158.933594 196.234375 158.933594 197.433594 C 158.933594 198.636719 159.910156 199.609375 161.109375 199.609375 C 162.308594 199.609375 163.285156 198.636719 163.285156 197.433594 C 163.285156 196.234375 162.308594 195.257812 161.109375 195.257812 Z M 169.8125 200.046875 C 168.609375 200.046875 167.636719 201.019531 167.636719 202.222656 C 167.636719 203.421875 168.609375 204.398438 169.8125 204.398438 C 171.011719 204.398438 171.988281 203.421875 171.988281 202.222656 C 171.988281 201.019531 171.011719 200.046875 169.8125 200.046875 Z M 178.511719 195.257812 C 177.3125 195.257812 176.339844 196.234375 176.339844 197.433594 C 176.339844 198.636719 177.3125 199.609375 178.511719 199.609375 C 179.714844 199.609375 180.6875 198.636719 180.6875 197.433594 C 180.6875 196.234375 179.714844 195.257812 178.511719 195.257812 Z M 187.214844 200.046875 C 186.015625 200.046875 185.039062 201.019531 185.039062 202.222656 C 185.039062 203.421875 186.015625 204.398438 187.214844 204.398438 C 188.417969 204.398438 189.390625 203.421875 189.390625 202.222656 C 189.390625 201.019531 188.417969 200.046875 187.214844 200.046875 Z M 195.917969 195.257812 C 194.71875 195.257812 193.742188 196.234375 193.742188 197.433594 C 193.742188 198.636719 194.71875 199.609375 195.917969 199.609375 C 197.117188 199.609375 198.09375 198.636719 198.09375 197.433594 C 198.09375 196.234375 197.117188 195.257812 195.917969 195.257812 Z M 204.621094 200.046875 C 203.417969 200.046875 202.445312 201.019531 202.445312 202.222656 C 202.445312 203.421875 203.417969 204.398438 204.621094 204.398438 C 205.820312 204.398438 206.796875 203.421875 206.796875 202.222656 C 206.796875 201.019531 205.820312 200.046875 204.621094 200.046875 Z M 213.324219 195.257812 C 212.121094 195.257812 211.148438 196.234375 211.148438 197.433594 C 211.148438 198.636719 212.121094 199.609375 213.324219 199.609375 C 214.523438 199.609375 215.5 198.636719 215.5 197.433594 C 215.5 196.234375 214.523438 195.257812 213.324219 195.257812 Z M 222.023438 200.046875 C 220.824219 200.046875 219.847656 201.019531 219.847656 202.222656 C 219.847656 203.421875 220.824219 204.398438 222.023438 204.398438 C 223.226562 204.398438 224.199219 203.421875 224.199219 202.222656 C 224.199219 201.019531 223.226562 200.046875 222.023438 200.046875 Z M 230.726562 195.257812 C 229.527344 195.257812 228.550781 196.234375 228.550781 197.433594 C 228.550781 198.636719 229.527344 199.609375 230.726562 199.609375 C 231.929688 199.609375 232.902344 198.636719 232.902344 197.433594 C 232.902344 196.234375 231.929688 195.257812 230.726562 195.257812 Z M 239.429688 200.046875 C 238.226562 200.046875 237.253906 201.019531 237.253906 202.222656 C 237.253906 203.421875 238.226562 204.398438 239.429688 204.398438 C 240.628906 204.398438 241.605469 203.421875 241.605469 202.222656 C 241.605469 201.019531 240.628906 200.046875 239.429688 200.046875 Z M 248.132812 195.257812 C 246.929688 195.257812 245.957031 196.234375 245.957031 197.433594 C 245.957031 198.636719 246.929688 199.609375 248.132812 199.609375 C 249.332031 199.609375 250.308594 198.636719 250.308594 197.433594 C 250.308594 196.234375 249.332031 195.257812 248.132812 195.257812 Z M 256.832031 200.046875 C 255.632812 200.046875 254.65625 201.019531 254.65625 202.222656 C 254.65625 203.421875 255.632812 204.398438 256.832031 204.398438 C 258.035156 204.398438 259.007812 203.421875 259.007812 202.222656 C 259.007812 201.019531 258.035156 200.046875 256.832031 200.046875 Z M 265.535156 195.257812 C 264.335938 195.257812 263.359375 196.234375 263.359375 197.433594 C 263.359375 198.636719 264.335938 199.609375 265.535156 199.609375 C 266.738281 199.609375 267.710938 198.636719 267.710938 197.433594 C 267.710938 196.234375 266.738281 195.257812 265.535156 195.257812 Z M 282.941406 195.257812 C 281.738281 195.257812 280.765625 196.234375 280.765625 197.433594 C 280.765625 198.636719 281.738281 199.609375 282.941406 199.609375 C 284.140625 199.609375 285.117188 198.636719 285.117188 197.433594 C 285.117188 196.234375 284.140625 195.257812 282.941406 195.257812 Z M 143.703125 204.832031 C 142.503906 204.832031 141.527344 205.804688 141.527344 207.007812 C 141.527344 208.207031 142.503906 209.183594 143.703125 209.183594 C 144.90625 209.183594 145.878906 208.207031 145.878906 207.007812 C 145.878906 205.804688 144.90625 204.832031 143.703125 204.832031 Z M 152.40625 209.617188 C 151.207031 209.617188 150.230469 210.59375 150.230469 211.792969 C 150.230469 212.996094 151.207031 213.96875 152.40625 213.96875 C 153.609375 213.96875 154.582031 212.996094 154.582031 211.792969 C 154.582031 210.59375 153.609375 209.617188 152.40625 209.617188 Z M 161.109375 204.832031 C 159.910156 204.832031 158.933594 205.804688 158.933594 207.007812 C 158.933594 208.207031 159.910156 209.183594 161.109375 209.183594 C 162.308594 209.183594 163.285156 208.207031 163.285156 207.007812 C 163.285156 205.804688 162.308594 204.832031 161.109375 204.832031 Z M 169.8125 209.617188 C 168.609375 209.617188 167.636719 210.59375 167.636719 211.792969 C 167.636719 212.996094 168.609375 213.96875 169.8125 213.96875 C 171.011719 213.96875 171.988281 212.996094 171.988281 211.792969 C 171.988281 210.59375 171.011719 209.617188 169.8125 209.617188 Z M 178.511719 204.832031 C 177.3125 204.832031 176.339844 205.804688 176.339844 207.007812 C 176.339844 208.207031 177.3125 209.183594 178.511719 209.183594 C 179.714844 209.183594 180.6875 208.207031 180.6875 207.007812 C 180.6875 205.804688 179.714844 204.832031 178.511719 204.832031 Z M 187.214844 209.617188 C 186.015625 209.617188 185.039062 210.59375 185.039062 211.792969 C 185.039062 212.996094 186.015625 213.96875 187.214844 213.96875 C 188.417969 213.96875 189.390625 212.996094 189.390625 211.792969 C 189.390625 210.59375 188.417969 209.617188 187.214844 209.617188 Z M 195.917969 204.832031 C 194.71875 204.832031 193.742188 205.804688 193.742188 207.007812 C 193.742188 208.207031 194.71875 209.183594 195.917969 209.183594 C 197.117188 209.183594 198.09375 208.207031 198.09375 207.007812 C 198.09375 205.804688 197.117188 204.832031 195.917969 204.832031 Z M 204.621094 209.617188 C 203.417969 209.617188 202.445312 210.59375 202.445312 211.792969 C 202.445312 212.996094 203.417969 213.96875 204.621094 213.96875 C 205.820312 213.96875 206.796875 212.996094 206.796875 211.792969 C 206.796875 210.59375 205.820312 209.617188 204.621094 209.617188 Z M 213.324219 204.832031 C 212.121094 204.832031 211.148438 205.804688 211.148438 207.007812 C 211.148438 208.207031 212.121094 209.183594 213.324219 209.183594 C 214.523438 209.183594 215.5 208.207031 215.5 207.007812 C 215.5 205.804688 214.523438 204.832031 213.324219 204.832031 Z M 222.023438 209.617188 C 220.824219 209.617188 219.847656 210.59375 219.847656 211.792969 C 219.847656 212.996094 220.824219 213.96875 222.023438 213.96875 C 223.226562 213.96875 224.199219 212.996094 224.199219 211.792969 C 224.199219 210.59375 223.226562 209.617188 222.023438 209.617188 Z M 230.726562 204.832031 C 229.527344 204.832031 228.550781 205.804688 228.550781 207.007812 C 228.550781 208.207031 229.527344 209.183594 230.726562 209.183594 C 231.929688 209.183594 232.902344 208.207031 232.902344 207.007812 C 232.902344 205.804688 231.929688 204.832031 230.726562 204.832031 Z M 239.429688 209.617188 C 238.226562 209.617188 237.253906 210.59375 237.253906 211.792969 C 237.253906 212.996094 238.226562 213.96875 239.429688 213.96875 C 240.628906 213.96875 241.605469 212.996094 241.605469 211.792969 C 241.605469 210.59375 240.628906 209.617188 239.429688 209.617188 Z M 248.132812 204.832031 C 246.929688 204.832031 245.957031 205.804688 245.957031 207.007812 C 245.957031 208.207031 246.929688 209.183594 248.132812 209.183594 C 249.332031 209.183594 250.308594 208.207031 250.308594 207.007812 C 250.308594 205.804688 249.332031 204.832031 248.132812 204.832031 Z M 152.40625 219.191406 C 151.207031 219.191406 150.230469 220.164062 150.230469 221.367188 C 150.230469 222.566406 151.207031 223.542969 152.40625 223.542969 C 153.609375 223.542969 154.582031 222.566406 154.582031 221.367188 C 154.582031 220.164062 153.609375 219.191406 152.40625 219.191406 Z M 161.109375 214.402344 C 159.910156 214.402344 158.933594 215.378906 158.933594 216.578125 C 158.933594 217.78125 159.910156 218.753906 161.109375 218.753906 C 162.308594 218.753906 163.285156 217.78125 163.285156 216.578125 C 163.285156 215.378906 162.308594 214.402344 161.109375 214.402344 Z M 178.511719 214.402344 C 177.3125 214.402344 176.339844 215.378906 176.339844 216.578125 C 176.339844 217.78125 177.3125 218.753906 178.511719 218.753906 C 179.714844 218.753906 180.6875 217.78125 180.6875 216.578125 C 180.6875 215.378906 179.714844 214.402344 178.511719 214.402344 Z M 187.214844 219.191406 C 186.015625 219.191406 185.039062 220.164062 185.039062 221.367188 C 185.039062 222.566406 186.015625 223.542969 187.214844 223.542969 C 188.417969 223.542969 189.390625 222.566406 189.390625 221.367188 C 189.390625 220.164062 188.417969 219.191406 187.214844 219.191406 Z M 195.917969 214.402344 C 194.71875 214.402344 193.742188 215.378906 193.742188 216.578125 C 193.742188 217.78125 194.71875 218.753906 195.917969 218.753906 C 197.117188 218.753906 198.09375 217.78125 198.09375 216.578125 C 198.09375 215.378906 197.117188 214.402344 195.917969 214.402344 Z M 204.621094 219.191406 C 203.417969 219.191406 202.445312 220.164062 202.445312 221.367188 C 202.445312 222.566406 203.417969 223.542969 204.621094 223.542969 C 205.820312 223.542969 206.796875 222.566406 206.796875 221.367188 C 206.796875 220.164062 205.820312 219.191406 204.621094 219.191406 Z M 213.324219 214.402344 C 212.121094 214.402344 211.148438 215.378906 211.148438 216.578125 C 211.148438 217.78125 212.121094 218.753906 213.324219 218.753906 C 214.523438 218.753906 215.5 217.78125 215.5 216.578125 C 215.5 215.378906 214.523438 214.402344 213.324219 214.402344 Z M 222.023438 219.191406 C 220.824219 219.191406 219.847656 220.164062 219.847656 221.367188 C 219.847656 222.566406 220.824219 223.542969 222.023438 223.542969 C 223.226562 223.542969 224.199219 222.566406 224.199219 221.367188 C 224.199219 220.164062 223.226562 219.191406 222.023438 219.191406 Z M 230.726562 214.402344 C 229.527344 214.402344 228.550781 215.378906 228.550781 216.578125 C 228.550781 217.78125 229.527344 218.753906 230.726562 218.753906 C 231.929688 218.753906 232.902344 217.78125 232.902344 216.578125 C 232.902344 215.378906 231.929688 214.402344 230.726562 214.402344 Z M 239.429688 219.191406 C 238.226562 219.191406 237.253906 220.164062 237.253906 221.367188 C 237.253906 222.566406 238.226562 223.542969 239.429688 223.542969 C 240.628906 223.542969 241.605469 222.566406 241.605469 221.367188 C 241.605469 220.164062 240.628906 219.191406 239.429688 219.191406 Z M 248.132812 214.402344 C 246.929688 214.402344 245.957031 215.378906 245.957031 216.578125 C 245.957031 217.78125 246.929688 218.753906 248.132812 218.753906 C 249.332031 218.753906 250.308594 217.78125 250.308594 216.578125 C 250.308594 215.378906 249.332031 214.402344 248.132812 214.402344 Z M 152.40625 228.761719 C 151.207031 228.761719 150.230469 229.738281 150.230469 230.9375 C 150.230469 232.140625 151.207031 233.113281 152.40625 233.113281 C 153.609375 233.113281 154.582031 232.140625 154.582031 230.9375 C 154.582031 229.738281 153.609375 228.761719 152.40625 228.761719 Z M 161.109375 223.976562 C 159.910156 223.976562 158.933594 224.949219 158.933594 226.152344 C 158.933594 227.351562 159.910156 228.328125 161.109375 228.328125 C 162.308594 228.328125 163.285156 227.351562 163.285156 226.152344 C 163.285156 224.949219 162.308594 223.976562 161.109375 223.976562 Z M 187.214844 228.761719 C 186.015625 228.761719 185.039062 229.738281 185.039062 230.9375 C 185.039062 232.140625 186.015625 233.113281 187.214844 233.113281 C 188.417969 233.113281 189.390625 232.140625 189.390625 230.9375 C 189.390625 229.738281 188.417969 228.761719 187.214844 228.761719 Z M 195.917969 223.976562 C 194.71875 223.976562 193.742188 224.949219 193.742188 226.152344 C 193.742188 227.351562 194.71875 228.328125 195.917969 228.328125 C 197.117188 228.328125 198.09375 227.351562 198.09375 226.152344 C 198.09375 224.949219 197.117188 223.976562 195.917969 223.976562 Z M 204.621094 228.761719 C 203.417969 228.761719 202.445312 229.738281 202.445312 230.9375 C 202.445312 232.140625 203.417969 233.113281 204.621094 233.113281 C 205.820312 233.113281 206.796875 232.140625 206.796875 230.9375 C 206.796875 229.738281 205.820312 228.761719 204.621094 228.761719 Z M 213.324219 223.976562 C 212.121094 223.976562 211.148438 224.949219 211.148438 226.152344 C 211.148438 227.351562 212.121094 228.328125 213.324219 228.328125 C 214.523438 228.328125 215.5 227.351562 215.5 226.152344 C 215.5 224.949219 214.523438 223.976562 213.324219 223.976562 Z M 177.984375 152.078125 L 202.167969 152.078125 L 202.167969 147.726562 L 177.984375 147.726562 Z M 148.160156 262.632812 L 146.160156 264.773438 L 149.335938 267.738281 L 151.335938 265.597656 C 153.285156 263.511719 156.042969 262.308594 158.898438 262.308594 L 175.957031 262.308594 L 175.957031 257.957031 L 158.898438 257.957031 C 154.84375 257.957031 150.925781 259.65625 148.152344 262.625 Z M 184.535156 262.320312 L 194.945312 262.320312 L 194.945312 257.96875 L 184.535156 257.96875 Z M 252.605469 250.578125 L 263.011719 250.578125 L 263.011719 246.226562 L 252.605469 246.226562 Z M 241.03125 165.046875 L 255.230469 165.046875 L 255.230469 160.695312 L 241.03125 160.695312 Z M 130.753906 118.277344 L 144.957031 118.277344 L 144.957031 113.929688 L 130.753906 113.929688 Z M 209.355469 177.203125 L 223.554688 177.203125 L 223.554688 172.851562 L 209.355469 172.851562 Z M 214.402344 104.101562 L 225.445312 104.101562 L 225.445312 99.753906 L 214.402344 99.753906 Z M 288.1875 135.847656 L 297.039062 135.847656 L 297.039062 131.496094 L 288.1875 131.496094 Z M 288.1875 135.847656 " fill-opacity="1" fill-rule="nonzero"/></g><g transform="matrix(1, 0, 0, 1, 47, 298)"><g clip-path="url(#99695f9640)"><g fill="#000000" fill-opacity="1"><g transform="translate(0.811289, 27.31992)"><g><path d="M 12.015625 0.171875 C 10.023438 0.171875 8.226562 -0.265625 6.625 -1.140625 C 5.019531 -2.023438 3.765625 -3.25 2.859375 -4.8125 C 1.953125 -6.375 1.5 -8.125 1.5 -10.0625 C 1.5 -12 1.953125 -13.75 2.859375 -15.3125 C 3.765625 -16.875 5.023438 -18.09375 6.640625 -18.96875 C 8.253906 -19.851562 10.054688 -20.296875 12.046875 -20.296875 C 13.535156 -20.296875 14.910156 -20.046875 16.171875 -19.546875 C 17.441406 -19.046875 18.519531 -18.316406 19.40625 -17.359375 L 18.0625 -16.015625 C 16.488281 -17.609375 14.503906 -18.40625 12.109375 -18.40625 C 10.515625 -18.40625 9.066406 -18.039062 7.765625 -17.3125 C 6.460938 -16.582031 5.441406 -15.582031 4.703125 -14.3125 C 3.960938 -13.050781 3.59375 -11.632812 3.59375 -10.0625 C 3.59375 -8.488281 3.960938 -7.066406 4.703125 -5.796875 C 5.441406 -4.535156 6.460938 -3.539062 7.765625 -2.8125 C 9.066406 -2.082031 10.515625 -1.71875 12.109375 -1.71875 C 14.515625 -1.71875 16.5 -2.523438 18.0625 -4.140625 L 19.40625 -2.78125 C 18.519531 -1.820312 17.441406 -1.085938 16.171875 -0.578125 C 14.898438 -0.078125 13.515625 0.171875 12.015625 0.171875 Z M 12.015625 0.171875 "/></g></g></g><g fill="#000000" fill-opacity="1"><g transform="translate(29.822422, 27.31992)"><g><path d="M 20.09375 -20.125 L 20.09375 0 L 18 0 L 18 -9.28125 L 5.40625 -9.28125 L 5.40625 0 L 3.28125 0 L 3.28125 -20.125 L 5.40625 -20.125 L 5.40625 -11.15625 L 18 -11.15625 L 18 -20.125 Z M 20.09375 -20.125 "/></g></g></g><g fill="#000000" fill-opacity="1"><g transform="translate(61.536094, 27.31992)"><g><path d="M 15.90625 -5.375 L 4.6875 -5.375 L 2.265625 0 L 0.0625 0 L 9.25 -20.125 L 11.359375 -20.125 L 20.5625 0 L 18.3125 0 Z M 15.125 -7.09375 L 10.296875 -17.90625 L 5.46875 -7.09375 Z M 15.125 -7.09375 "/></g></g></g><g fill="#000000" fill-opacity="1"><g transform="translate(90.489736, 27.31992)"><g><path d="M 11.390625 0.171875 C 8.773438 0.171875 6.738281 -0.570312 5.28125 -2.0625 C 3.832031 -3.5625 3.109375 -5.738281 3.109375 -8.59375 L 3.109375 -20.125 L 5.234375 -20.125 L 5.234375 -8.6875 C 5.234375 -6.34375 5.757812 -4.59375 6.8125 -3.4375 C 7.863281 -2.289062 9.390625 -1.71875 11.390625 -1.71875 C 13.398438 -1.71875 14.929688 -2.289062 15.984375 -3.4375 C 17.035156 -4.59375 17.5625 -6.34375 17.5625 -8.6875 L 17.5625 -20.125 L 19.640625 -20.125 L 19.640625 -8.59375 C 19.640625 -5.738281 18.914062 -3.5625 17.46875 -2.0625 C 16.019531 -0.570312 13.992188 0.171875 11.390625 0.171875 Z M 11.390625 0.171875 "/></g></g></g><g fill="#000000" fill-opacity="1"><g transform="translate(121.599652, 27.31992)"><g><path d="M 5.40625 -18.28125 L 5.40625 -10.375 L 15.8125 -10.375 L 15.8125 -8.53125 L 5.40625 -8.53125 L 5.40625 0 L 3.28125 0 L 3.28125 -20.125 L 17.078125 -20.125 L 17.078125 -18.28125 Z M 5.40625 -18.28125 "/></g></g></g><g fill="#000000" fill-opacity="1"><g transform="translate(148.138265, 27.31992)"><g><path d="M 5.40625 -18.28125 L 5.40625 -10.375 L 15.8125 -10.375 L 15.8125 -8.53125 L 5.40625 -8.53125 L 5.40625 0 L 3.28125 0 L 3.28125 -20.125 L 17.078125 -20.125 L 17.078125 -18.28125 Z M 5.40625 -18.28125 "/></g></g></g><g fill="#000000" fill-opacity="1"><g transform="translate(174.676879, 27.31992)"><g><path d="M 17.515625 -1.84375 L 17.515625 0 L 3.28125 0 L 3.28125 -20.125 L 17.078125 -20.125 L 17.078125 -18.28125 L 5.40625 -18.28125 L 5.40625 -11.125 L 15.8125 -11.125 L 15.8125 -9.3125 L 5.40625 -9.3125 L 5.40625 -1.84375 Z M 17.515625 -1.84375 "/></g></g></g><g fill="#000000" fill-opacity="1"><g transform="translate(202.250496, 27.31992)"><g><path d="M 11.390625 0.171875 C 8.773438 0.171875 6.738281 -0.570312 5.28125 -2.0625 C 3.832031 -3.5625 3.109375 -5.738281 3.109375 -8.59375 L 3.109375 -20.125 L 5.234375 -20.125 L 5.234375 -8.6875 C 5.234375 -6.34375 5.757812 -4.59375 6.8125 -3.4375 C 7.863281 -2.289062 9.390625 -1.71875 11.390625 -1.71875 C 13.398438 -1.71875 14.929688 -2.289062 15.984375 -3.4375 C 17.035156 -4.59375 17.5625 -6.34375 17.5625 -8.6875 L 17.5625 -20.125 L 19.640625 -20.125 L 19.640625 -8.59375 C 19.640625 -5.738281 18.914062 -3.5625 17.46875 -2.0625 C 16.019531 -0.570312 13.992188 0.171875 11.390625 0.171875 Z M 11.390625 0.171875 "/></g></g></g><g fill="#000000" fill-opacity="1"><g transform="translate(233.360411, 27.31992)"><g><path d="M 17.015625 0 L 12.421875 -6.46875 C 11.898438 -6.40625 11.363281 -6.375 10.8125 -6.375 L 5.40625 -6.375 L 5.40625 0 L 3.28125 0 L 3.28125 -20.125 L 10.8125 -20.125 C 13.375 -20.125 15.382812 -19.507812 16.84375 -18.28125 C 18.300781 -17.050781 19.03125 -15.363281 19.03125 -13.21875 C 19.03125 -11.65625 18.628906 -10.332031 17.828125 -9.25 C 17.035156 -8.164062 15.90625 -7.382812 14.4375 -6.90625 L 19.34375 0 Z M 10.75 -8.1875 C 12.75 -8.1875 14.273438 -8.628906 15.328125 -9.515625 C 16.378906 -10.398438 16.90625 -11.632812 16.90625 -13.21875 C 16.90625 -14.851562 16.378906 -16.101562 15.328125 -16.96875 C 14.273438 -17.84375 12.75 -18.28125 10.75 -18.28125 L 5.40625 -18.28125 L 5.40625 -8.1875 Z M 10.75 -8.1875 "/></g></g></g><g fill="#000000" fill-opacity="1"><g transform="translate(262.486564, 27.31992)"><g><path d="M 8.828125 0.171875 C 7.328125 0.171875 5.890625 -0.0664062 4.515625 -0.546875 C 3.148438 -1.023438 2.09375 -1.65625 1.34375 -2.4375 L 2.1875 -4.078125 C 2.914062 -3.347656 3.882812 -2.757812 5.09375 -2.3125 C 6.300781 -1.863281 7.546875 -1.640625 8.828125 -1.640625 C 10.628906 -1.640625 11.976562 -1.96875 12.875 -2.625 C 13.78125 -3.289062 14.234375 -4.148438 14.234375 -5.203125 C 14.234375 -6.003906 13.988281 -6.644531 13.5 -7.125 C 13.007812 -7.601562 12.410156 -7.972656 11.703125 -8.234375 C 10.992188 -8.492188 10.003906 -8.773438 8.734375 -9.078125 C 7.222656 -9.460938 6.015625 -9.832031 5.109375 -10.1875 C 4.210938 -10.539062 3.441406 -11.082031 2.796875 -11.8125 C 2.160156 -12.539062 1.84375 -13.53125 1.84375 -14.78125 C 1.84375 -15.789062 2.109375 -16.710938 2.640625 -17.546875 C 3.179688 -18.378906 4.003906 -19.046875 5.109375 -19.546875 C 6.222656 -20.046875 7.601562 -20.296875 9.25 -20.296875 C 10.40625 -20.296875 11.53125 -20.132812 12.625 -19.8125 C 13.726562 -19.5 14.6875 -19.066406 15.5 -18.515625 L 14.78125 -16.8125 C 13.9375 -17.375 13.035156 -17.789062 12.078125 -18.0625 C 11.117188 -18.34375 10.175781 -18.484375 9.25 -18.484375 C 7.488281 -18.484375 6.160156 -18.140625 5.265625 -17.453125 C 4.378906 -16.773438 3.9375 -15.898438 3.9375 -14.828125 C 3.9375 -14.023438 4.179688 -13.378906 4.671875 -12.890625 C 5.160156 -12.398438 5.773438 -12.023438 6.515625 -11.765625 C 7.253906 -11.515625 8.242188 -11.234375 9.484375 -10.921875 C 10.960938 -10.554688 12.15625 -10.195312 13.0625 -9.84375 C 13.976562 -9.488281 14.75 -8.953125 15.375 -8.234375 C 16.007812 -7.515625 16.328125 -6.539062 16.328125 -5.3125 C 16.328125 -4.300781 16.050781 -3.378906 15.5 -2.546875 C 14.957031 -1.710938 14.117188 -1.050781 12.984375 -0.5625 C 11.859375 -0.0703125 10.472656 0.171875 8.828125 0.171875 Z M 8.828125 0.171875 "/></g></g></g></g></g><g transform="matrix(1, 0, 0, 1, 94, 40)"><g clip-path="url(#8907705d47)"><g fill="#000000" fill-opacity="1"><g transform="translate(1.665264, 27.204057)"><g><path d="M 10.8125 -20.125 C 13.375 -20.125 15.382812 -19.507812 16.84375 -18.28125 C 18.300781 -17.050781 19.03125 -15.363281 19.03125 -13.21875 C 19.03125 -11.070312 18.300781 -9.390625 16.84375 -8.171875 C 15.382812 -6.960938 13.375 -6.359375 10.8125 -6.359375 L 5.40625 -6.359375 L 5.40625 0 L 3.28125 0 L 3.28125 -20.125 Z M 10.75 -8.21875 C 12.75 -8.21875 14.273438 -8.65625 15.328125 -9.53125 C 16.378906 -10.40625 16.90625 -11.632812 16.90625 -13.21875 C 16.90625 -14.851562 16.378906 -16.101562 15.328125 -16.96875 C 14.273438 -17.84375 12.75 -18.28125 10.75 -18.28125 L 5.40625 -18.28125 L 5.40625 -8.21875 Z M 10.75 -8.21875 "/></g></g></g><g fill="#000000" fill-opacity="1"><g transform="translate(30.647662, 27.204057)"><g><path d="M 3.28125 -20.125 L 5.40625 -20.125 L 5.40625 -1.84375 L 16.671875 -1.84375 L 16.671875 0 L 3.28125 0 Z M 3.28125 -20.125 "/></g></g></g><g fill="#000000" fill-opacity="1"><g transform="translate(55.921251, 27.204057)"><g><path d="M 15.90625 -5.375 L 4.6875 -5.375 L 2.265625 0 L 0.0625 0 L 9.25 -20.125 L 11.359375 -20.125 L 20.5625 0 L 18.3125 0 Z M 15.125 -7.09375 L 10.296875 -17.90625 L 5.46875 -7.09375 Z M 15.125 -7.09375 "/></g></g></g><g fill="#000000" fill-opacity="1"><g transform="translate(84.874893, 27.204057)"><g><path d="M 7.1875 -18.28125 L 0.109375 -18.28125 L 0.109375 -20.125 L 16.390625 -20.125 L 16.390625 -18.28125 L 9.3125 -18.28125 L 9.3125 0 L 7.1875 0 Z M 7.1875 -18.28125 "/></g></g></g><g fill="#000000" fill-opacity="1"><g transform="translate(109.717215, 27.204057)"><g><path d="M 3.28125 -20.125 L 5.40625 -20.125 L 5.40625 0 L 3.28125 0 Z M 3.28125 -20.125 "/></g></g></g><g fill="#000000" fill-opacity="1"><g transform="translate(126.73943, 27.204057)"><g><path d="M 11.390625 0.171875 C 8.773438 0.171875 6.738281 -0.570312 5.28125 -2.0625 C 3.832031 -3.5625 3.109375 -5.738281 3.109375 -8.59375 L 3.109375 -20.125 L 5.234375 -20.125 L 5.234375 -8.6875 C 5.234375 -6.34375 5.757812 -4.59375 6.8125 -3.4375 C 7.863281 -2.289062 9.390625 -1.71875 11.390625 -1.71875 C 13.398438 -1.71875 14.929688 -2.289062 15.984375 -3.4375 C 17.035156 -4.59375 17.5625 -6.34375 17.5625 -8.6875 L 17.5625 -20.125 L 19.640625 -20.125 L 19.640625 -8.59375 C 19.640625 -5.738281 18.914062 -3.5625 17.46875 -2.0625 C 16.019531 -0.570312 13.992188 0.171875 11.390625 0.171875 Z M 11.390625 0.171875 "/></g></g></g><g fill="#000000" fill-opacity="1"><g transform="translate(157.849345, 27.204057)"><g><path d="M 24.171875 -20.125 L 24.171875 0 L 22.140625 0 L 22.140625 -16.09375 L 14.234375 -2.5625 L 13.21875 -2.5625 L 5.3125 -16.015625 L 5.3125 0 L 3.28125 0 L 3.28125 -20.125 L 5.03125 -20.125 L 13.765625 -5.203125 L 22.421875 -20.125 Z M 24.171875 -20.125 "/></g></g></g></g></g></svg>